<mxfile host="Electron" agent="Mozilla/5.0 (Macintosh; Intel Mac OS X 10_15_7) AppleWebKit/537.36 (KHTML, like Gecko) draw.io/26.1.1 Chrome/132.0.6834.210 Electron/34.3.3 Safari/537.36" version="26.1.1">
  <diagram name="Page-1" id="who9gUtpxFdZXmJz0Fy5">
    <mxGraphModel dx="1115" dy="771" grid="1" gridSize="10" guides="1" tooltips="1" connect="1" arrows="1" fold="1" page="1" pageScale="1" pageWidth="850" pageHeight="1100" math="1" shadow="0">
      <root>
        <mxCell id="0" />
        <mxCell id="1" parent="0" />
        <mxCell id="MDaIKtW8UcgU8Lhw4XhT-114" value="Hierarchy" style="rounded=1;whiteSpace=wrap;html=1;fontFamily=Times New Roman;verticalAlign=top;fontSize=34;arcSize=9;fillColor=#dae8fc;strokeColor=#6c8ebf;" vertex="1" parent="1">
          <mxGeometry x="500" y="100" width="520" height="290" as="geometry" />
        </mxCell>
        <mxCell id="MDaIKtW8UcgU8Lhw4XhT-120" value="" style="rounded=1;whiteSpace=wrap;html=1;dashed=1;arcSize=21;fillColor=#dae8fc;strokeColor=#6c8ebf;" vertex="1" parent="1">
          <mxGeometry x="536" y="110.02" width="84" height="269.98" as="geometry" />
        </mxCell>
        <mxCell id="MDaIKtW8UcgU8Lhw4XhT-12" value="" style="shape=flexArrow;endArrow=classic;html=1;rounded=0;fillColor=#1ba1e2;strokeColor=none;entryX=0;entryY=0.5;entryDx=0;entryDy=0;exitX=1;exitY=0.5;exitDx=0;exitDy=0;" edge="1" parent="1" source="MDaIKtW8UcgU8Lhw4XhT-45" target="MDaIKtW8UcgU8Lhw4XhT-120">
          <mxGeometry width="50" height="50" relative="1" as="geometry">
            <mxPoint x="390" y="245" as="sourcePoint" />
            <mxPoint x="510" y="244.94" as="targetPoint" />
          </mxGeometry>
        </mxCell>
        <mxCell id="MDaIKtW8UcgU8Lhw4XhT-42" value="split" style="edgeLabel;html=1;align=center;verticalAlign=middle;resizable=0;points=[];fontFamily=Times New Roman;fontSize=20;" vertex="1" connectable="0" parent="MDaIKtW8UcgU8Lhw4XhT-12">
          <mxGeometry x="-0.0634" y="2" relative="1" as="geometry">
            <mxPoint x="-16" y="-21" as="offset" />
          </mxGeometry>
        </mxCell>
        <mxCell id="MDaIKtW8UcgU8Lhw4XhT-43" value="Original data" style="text;html=1;align=center;verticalAlign=middle;resizable=0;points=[];autosize=1;strokeColor=none;fillColor=none;fontFamily=Times New Roman;fontSize=25;" vertex="1" parent="1">
          <mxGeometry x="309.99999999999994" y="155.12" width="150" height="40" as="geometry" />
        </mxCell>
        <mxCell id="MDaIKtW8UcgU8Lhw4XhT-45" value="" style="shape=image;verticalLabelPosition=bottom;labelBackgroundColor=default;verticalAlign=top;aspect=fixed;imageAspect=0;image=data:image/png,iVBORw0KGgoAAAANSUhEUgAAAHIAAABWCAYAAAAT4MJdAAAAAXNSR0IArs4c6QAAAIRlWElmTU0AKgAAAAgABQESAAMAAAABAAEAAAEaAAUAAAABAAAASgEbAAUAAAABAAAAUgEoAAMAAAABAAIAAIdpAAQAAAABAAAAWgAAAAAAAACQAAAAAQAAAJAAAAABAAOgAQADAAAAAQABAACgAgAEAAAAAQAAAHKgAwAEAAAAAQAAAFYAAAAAVgf6RwAAAAlwSFlzAAAWJQAAFiUBSVIk8AAAEmZJREFUeAHtXQmUVMUVfWziiREMizFIUKKgogjIph4RgqCIAZEkGlFBhaMQInIEYWIcUAmIYIisKqAIBxAQgcEA8bgMSAiIRDQCCjiCsojssjoDMzfvVncP3T3/d/+1I5y578z0r6pXy/9V9X9VvVevyogCCv6W4vR9AmVP36KXljz+CZRWZPzTOI2vSyvyNK68+KKXVmT80ziNr8v7KXtRUZGcPHlSypQpIxUqVOCgSU6cOFHsZtoFBQUmi7POOktOKuWfyNfRlUjFChWlfJnyhp/xypcvL2XLljXpMd2Yu7CwUPhXrlw58xfLk7zkibmdloGFYRmZJ8vMeLyH+Dxj7nR5xsqQfN8xN/PifROx5xDLM1aG2H0m58l7Zvosn2Noxp7wwQcf4JprrsGDDz5o4ufl5aFx48a47bbbjPvYsWNo2LAhGjZoiD4FfaAVCGmnf431b4ugv9J93e4zaaxYscLEeeKJJ9CkSRO88cYbxj127FjjHjNmjHG/+eabxp2VlWXcK1euNPG7du1q3Fu3bjXhN998s3HrA0KDBg1MOY4cOWL8OnToYMq5ceNG4+7Zs6dxv/POO8b97LPPmjQmT55s3LNmzTLuQYMGGXdubq5xP/TQQ8b9xRdfoFGjRujUqZNx79mzR/NsjLPPboFPPzVehp/Pavfu3cajS5cuJs9Vq1YZN9Pms5s6dapxT58+HXyeTmEq2ymzF77n8bypwE3YVCL6KqxCWaU5SqHh6ac5t4r8VawIDB8eWlZMmO2P2f3618BrrwFsC9deG/F7773wsg6tIvORj4uUnlU6qWSHAhTg90p9lQJF795AlSrA2rUAe+Lx48Dhw4C+RXD++cBjjwWaHZO/7DKgf/9IVsmJM5wdWF8O+OGH5FD/7lAqcj/2m0pkj3MCVvRjSoFU5sGDwOWXA5MmASdOWGdfUACMHw9cdRVw9Kg1jwtfvi1/+Usg+pZMGXPZMuDii4G9e1OyuQ4MvCIP4zCuUvpIyQ1O4ATuVxqr5BnffQfUrevsiTITPlV2o/37PWd54ABQpw7w2WfOk/jwQ+DKKwHGDQqBV+QduAOvK3nBURzFtUrrlFyDr82rrwZ08OMKS5dG4tn13jSJ6VgOTMItFi0CbrwRKCx0G9OaP9CKnI3ZuEvJD7ZgC2oruQZHynPnuo5mInCkeMcdruP26AGMG+c6WnGEwYMBHaQHgsAqkt/Fy5Q4yPGL6ZhuXrOO0+FItE8fx+yWjH/8I6BTHadYuBD43e+cctvztWwJvP++fbjTkMAqsh/6YYpSEOD38galL5XSghO1pk3TsqVl4LCS70mdh6ZDbIQanRKmY08Z/u23QP36gE65fSGQityBHbhaKUhsx3ZcoJQWrMT169OyOWL4+GPo6kJaVp3LY/78tGyOGSZMAB55xDG7JWMga63Py/PypFKQuFAulC5KbynZYtgwkQ4dROrVs2VxFdCokUjbtiKvvGIbbetWkW3bRG6/3ZbFdUCvXiIffSSyaZPrqIkRLKvYoec+7EM9pTDAUSxXfiwRmy9yThgkmC7nEzazdgZFV/aCzBUf6WyN30uv8N0jX5KXpI9SGPiJ/EReVfq7Ugk88IDI6NGiK98lgnx5VK4sMmqUSM+eJZJZtkykZUuRunVLBPn2aNJEpHZtkSVLfCTltRUwXgslfiPDQhGKzFotB0DF4Ajh+uuLnYFfFBUBF11UoldWrgzoenho+PrryGKTlwx89cjDcliOKtVQCgtlpIzMUnpRqRj8Lo4fX+wM/IKio8WLRVq0KE767bdF+vYVqVat2Cvwi1q1It/e6dMjSbMFu4KXFsA4G5T+q5QJ6D3hiJLKdoBbb81ElkDtUwsTlGhEpWCh5s1VRma7EDkYoOQUpsKdMv8/+SZgAiZCF8K50P3555kpyjffmLXbd98FsrMzkyVzGTw0H9ULarjK8LSpSN5VFVTDkbs7AvyGZQKaT2HtSyDlAJVPZwxvnVyEi5Y87Co/X99IV+/vAJi7z6wo7065R1T/IYDUHCSh+fxn/Ify4LnzVc3EAX8ALPwuPlEuSzouHSW5uS4TdFX1/y9mlW4UtbkJlypRGJ0JsBdWq6Y5VdHhaoa65HIsR2elfftQrCbi5F5NlTthtOJZvhw4dMgqJAQ/roN+mYc7lZwKrP2WguMqqmxg82bgnnv8Juco/i24BV8ruYWvilQdpsCWOdMWnGJ17RXfKnHumgk0bw58/300pwwMW9djPa5X8gJf30guqqgmYfj47W9FFiwQfqguUMpX2qAUJr75RuTAAZFKlaK5zJ8vMmVKmFnKy0pPKXmGlxbAOHepDHnNGq+xHcajCJ29IU6UvhRL0UcpTFB3q4QOztlnB6LjY1VuynOvVPIKXz1S9YNV8TbSfrgOuX6957ZkH/HVV0XmzhXV1i3maSkt5Z9KB5XCwL59Ijk5Is2bJ6X+8MMiy5cneQbjnCbT5D4lX/DaCu6/PyLd/lLlv9R54lx91y6vqVnEo2SDvdECQzEULymFgWnTgNGjbVK+9FIgaImLZkV5rp/RuGkANkVO603tiCVLgF69gAULIiqjv/lN2mjOGSjopWKMBbiY7udVZJGk8WIdxa3MlWRr1QpguQLEYixGDyU/8FWRjz8ekZSzN8bA67jPWczb/S8T+dWvUsa7G3fjfaUgkZsLdO6cIsUdKunpqKtLAeJW3Op7zfrUh8fDy/mcc0TWrk0U0PfrJzJtmofEkqNw2JgG1EqwlFWmiZcq+LnnRCZOTMFRQyU9eXkiW7akYHIetFt2yyGl+kp+4Ksizz1XZOVKEQpFY2jVSmTcuJjLx++gQSIrVqRMoJ7Uk+1KfBhBYONGkf37RapWTZMayzZzZhomZ8HDZFhwgnmvbwluUqlUCZg9+1QKfCPWqnXK7emKguMLL3QUlZp7TysFgSefBHTjlTNYCJ6dRUzkqoVa+rX3LwTw1SOrVxc5dCiiohBrf5wldO8uwumIZ1Co++c/O4reVbrqwH2aI95UTFzYmDVL5K67UnHFhXXuLLJoUZyH+8vZMlvuV6LwPBAkthHnrg0bIrMD6ivF478qa27XLt7HxTWHjZdc4kpU9SgexQIlP+CUY+BAFylwi4Lu4/QDLsdZbTf0kqZpCF4iMg7FglSuTQbvkTvXPIEba+6801XUzdiMm5T8QPeYIrlBpk2PrdXj0hb1nG5WCgq+KpKFsJPx3n67R9WItm09rSq0RmtVad7u6bl88glAAYBrcJd1t26uozFCd6UlSkHBd0XaFYT7Sf/yF7tQG3+Ki5o1swlM7T0Xc9FbyQu4QkV1Dk/gDjAPmx3roA6OKwWF0CqS91a1qstisuajtgNcxjSbh/hw3IIKVVafB8fpvPAC8NxzjtnJOFNpuFKQCK0i+crlmMUx+ES509gHspGtG/vi5kIO0ho5MsW6qoP4yNfdZ1xkdoEGaICvlIKEr+mHaQU2/6hWM3SoyOzZNgzJ3pQ3Ul/VByg9GKXkBlOninTt6iZGEi/Nr9xwQ0RckhRk5dwre+V8pdpKgSPIlhGfFqXr1M52BJq+8LEFPJZHK7TCHiUn4L7EqIUVJ+z2PFTPbN3aPjwu5A/4A/6tFDRC65FsbVzCy1f7SGnBpbhf/ELkZz9Ly5qOgeuvA5WcYPhwEe6E8o3LLzfaC7JzZ9qklskyaaQUCoJuHfHpzZkDqO2f1KBi07/+lZrHYShlehcrpQM3W3HuGBj+8Y+0U5EZmIExSmHANIwwEo6lyUEPZcP8tQTV8Gh8JkCMwihdgZ2SMsXu3VUtf2FKFveBFLvZ3qh+ZpScvvbdZh56RbJA552XYms1hZpRs11uC2/HvxVb0xqUoL5qimdul3Rqf9r2UfNndmiDNnZBvv0zUpHca09tAkv4FpVYpopOStwoa4VXXgGipu2sgr370XCOjTC8MRobVU7viaeOmZGKZBEqVLBYsqNtk2HDUpfQYyh3ijVTssIVVwAU9IcCvmH4vUwCd5MVKoWFjFXk0KHAvHlJt8EnGsCUIylV46RZtOpKyaCFqlCVxjdtKiEVGYmReFspTGSsInkTlBVzIcQgJwd49NGoI5yf9/AenlGKB6er69bF+4RwTaUfqhYquNOavTEI4XGqkma0Inl/xUq/at/UbFpNVTqfYVyU5kOMgVbKrrsuIOWwWKJWv9Syiy4QrMAK/EkpbGS0IjnToBmbwg90zkiRQwbwFJ7S/U3LTU7t2wM06Bc6uHNLpTgnjx5CDaVMIKMVyRu65RaVxZ6nQuAwbJxYPDF+KyO9sgg19JmGoFtskat6qaxyc5dmaK6UCfivyLTLNom38XXOJ2hda3OiZ8guqlR0e/orvB3ueCPhLooK8tF6aVnsL9iV4B+Ww19FckZdrpy7sql91LZXbMPq1e6i+eWWdSrIzQ9v+J9cvjzkod63VYB770sOCsXtb9H8q69EjwCI2PQyTSLNPy6O33ijvPhWTaMkx8W7TOCZZ0RqXloku8/anonsTB5DZIjMrPJPtYCkGoGZgucmwi3LXEh1OoL4+c8B6qwqqCOTm2suQ/3HcQeLeKDwexVwtQp9GsCbodC4eF8Kh+n33hvqPTJxfz1y795IW4v9pmp53Cjao4fIBRcYrkmTRLKy+IhTRfIfRruDb6ldwvPKVpIdSnlKYYPC7dFKBk2bRqTrjuR5PkvmublwsZtW9mjoPR3Kl49Y+Y/j41EdXo0exyVje0nBdvwn/CAOGrXJMCfn/DbSpnsCdu5UW28tEryCdvjrkQd1o2mdOiLffZe6Kb32msiYMSI//WkCH3dy0yxYWOjfX2T16lOpV5bKslNpnVJYGCyDZZJSAig0//xzESdvroSIzh1GV52tw3mUOM4RI0S4a4oVGjOgFhdsLpk09xFwa7OFJUcOROjtcIdAcuq2btpUpfnV5GdH+wPNlD5VChprZa30UlqlZAnusWCjj9t9bcnnwdNfjzx2TKS+bgfbscM+69dfF5kwwbISGelJtddLBShu9w4S7dtHdr8lp1lRKkodpfeVgkZv6S2vK9miUyeRefNsg30HeH5fU2TDxW87dUCukJctmzZ5HknlSdPbJmWql6QaKNI4IU8ysJNX2iSb0nse5uFepZTgvLtmTYDfzIDhr0ceP87j2ES449UKa9aI9O5tFZLg16aNCN86M2YkeHtyUP8pOzulNWs5R+kRpZFKQeCYHJMspQlKKUEd0YULRe5RM2x6Il/g8Nw4qPhCXfsHHii5r54TOC5uOgQ30PBQHJru8go2eFqq+rdDbcOmaIqPlfyC+zimKjnGn1Qa8re/OWZ3wuivR+o5jKZH8jvJ3hcPbs2uWTPeJ+U1LVBzFEvb8F7x17+KNG4sct11zlKYI3Okm9IPSl6RIzmyR4n7NB1j7FiROXPEvdXANDk4qXFLni5dIgJG9spk6xs8S3HbNstoqTyp/dGtWyoO6zDumjZ246yDbX0nqQ3YLkpewK1xVyjR2JFrUL+HGhLcChYATBV7Tidm+orqGjTcFgMVYrg12yNodcrNqYCLF0e0K3iwihfQNAqPR3QDDpTqK61R8gwaMa9Xz4i8PKcRjeivInmmEM9nJOK3NPHk0xIKOhE2J/9ph4Cq/JQ98zoVJk6MVKLf0wPboZ1aaNbEHICVSDljjpJv0MIULV9yV5fHg9ZYBn8Vyd2ssfP2+vWLGN1hb7RRCXR707Q+xfEST4MrKDgVm4ManqR0002RcVa6yj4V0/6KAuj2SoOUEk40SIpCnVkuwfnd6p6QLG+ob9+IojaXPXlzFLwXKzglcFs6/FUkv4N6vrABjZvyUER+qLycw2dZvMi90D4Rp1/c6c1r7r7j0mVQJynFZz0QA3XTWwOsVjLG8KOB/B6+qFRX6TOlUMADstgzuWubykUutCh8VeQGrcQBAwZgAg93UuxScdYAVTriYdNEvrao/npWLf/0lG/jN1T1Igeq1YXYodHjdHTDNHjgNDFz5kwTzkOwiSVqI438S5boh1CxevUqZGUNxIwZM4x7k6ofMj4P1SZ4UDX5hwwZYtx6erjJ/3FdvPgherrOcD3djnF2RifmE/X9TPen0ZOtJ8+bjKoDq6Lau9VwiVL1FdWNu+OsjkYMtk7V8JjHyy+/bPLYoW8hpj9ixAjjPqTKSQzPzs42bv7j4d7M4/uoAdgXtMLoZvmJ2TpaY5yl0U7Ag8h3uTDs52+t1TSD0n8/hifgbx75Y7iD0jKYJ1BakWdIQyityNKKPEOewBlyG6U9srQiz5AncIbcRmmPLK3IM+QJlN5G6RP4MT2B/wE3ZQQPwk+qQAAAAABJRU5ErkJggg==;clipPath=inset(5.81% 10.53% 12.79% 12.28%);imageBorder=default;" vertex="1" parent="1">
          <mxGeometry x="328.44" y="199.99999999999997" width="113.13" height="90" as="geometry" />
        </mxCell>
        <mxCell id="MDaIKtW8UcgU8Lhw4XhT-75" value="Blocks" style="text;html=1;align=center;verticalAlign=middle;resizable=0;points=[];autosize=1;strokeColor=none;fillColor=none;fontFamily=Times New Roman;fontSize=25;" vertex="1" parent="1">
          <mxGeometry x="533.4" y="110" width="90" height="40" as="geometry" />
        </mxCell>
        <mxCell id="MDaIKtW8UcgU8Lhw4XhT-103" style="edgeStyle=elbowEdgeStyle;rounded=0;orthogonalLoop=1;jettySize=auto;html=1;exitX=1;exitY=0.5;exitDx=0;exitDy=0;entryX=0;entryY=0.5;entryDx=0;entryDy=0;strokeWidth=2;" edge="1" parent="1" source="MDaIKtW8UcgU8Lhw4XhT-88" target="MDaIKtW8UcgU8Lhw4XhT-97">
          <mxGeometry relative="1" as="geometry" />
        </mxCell>
        <mxCell id="MDaIKtW8UcgU8Lhw4XhT-88" value="" style="shape=image;verticalLabelPosition=bottom;labelBackgroundColor=default;verticalAlign=top;aspect=fixed;imageAspect=0;image=data:image/png,iVBORw0KGgoAAAANSUhEUgAAAHIAAABWCAYAAAAT4MJdAAAAAXNSR0IArs4c6QAAAIRlWElmTU0AKgAAAAgABQESAAMAAAABAAEAAAEaAAUAAAABAAAASgEbAAUAAAABAAAAUgEoAAMAAAABAAIAAIdpAAQAAAABAAAAWgAAAAAAAACQAAAAAQAAAJAAAAABAAOgAQADAAAAAQABAACgAgAEAAAAAQAAAHKgAwAEAAAAAQAAAFYAAAAAVgf6RwAAAAlwSFlzAAAWJQAAFiUBSVIk8AAAEmZJREFUeAHtXQmUVMUVfWziiREMizFIUKKgogjIph4RgqCIAZEkGlFBhaMQInIEYWIcUAmIYIisKqAIBxAQgcEA8bgMSAiIRDQCCjiCsojssjoDMzfvVncP3T3/d/+1I5y578z0r6pXy/9V9X9VvVevyogCCv6W4vR9AmVP36KXljz+CZRWZPzTOI2vSyvyNK68+KKXVmT80ziNr8v7KXtRUZGcPHlSypQpIxUqVOCgSU6cOFHsZtoFBQUmi7POOktOKuWfyNfRlUjFChWlfJnyhp/xypcvL2XLljXpMd2Yu7CwUPhXrlw58xfLk7zkibmdloGFYRmZJ8vMeLyH+Dxj7nR5xsqQfN8xN/PifROx5xDLM1aG2H0m58l7Zvosn2Noxp7wwQcf4JprrsGDDz5o4ufl5aFx48a47bbbjPvYsWNo2LAhGjZoiD4FfaAVCGmnf431b4ugv9J93e4zaaxYscLEeeKJJ9CkSRO88cYbxj127FjjHjNmjHG/+eabxp2VlWXcK1euNPG7du1q3Fu3bjXhN998s3HrA0KDBg1MOY4cOWL8OnToYMq5ceNG4+7Zs6dxv/POO8b97LPPmjQmT55s3LNmzTLuQYMGGXdubq5xP/TQQ8b9xRdfoFGjRujUqZNx79mzR/NsjLPPboFPPzVehp/Pavfu3cajS5cuJs9Vq1YZN9Pms5s6dapxT58+HXyeTmEq2ymzF77n8bypwE3YVCL6KqxCWaU5SqHh6ac5t4r8VawIDB8eWlZMmO2P2f3618BrrwFsC9deG/F7773wsg6tIvORj4uUnlU6qWSHAhTg90p9lQJF795AlSrA2rUAe+Lx48Dhw4C+RXD++cBjjwWaHZO/7DKgf/9IVsmJM5wdWF8O+OGH5FD/7lAqcj/2m0pkj3MCVvRjSoFU5sGDwOWXA5MmASdOWGdfUACMHw9cdRVw9Kg1jwtfvi1/+Usg+pZMGXPZMuDii4G9e1OyuQ4MvCIP4zCuUvpIyQ1O4ATuVxqr5BnffQfUrevsiTITPlV2o/37PWd54ABQpw7w2WfOk/jwQ+DKKwHGDQqBV+QduAOvK3nBURzFtUrrlFyDr82rrwZ08OMKS5dG4tn13jSJ6VgOTMItFi0CbrwRKCx0G9OaP9CKnI3ZuEvJD7ZgC2oruQZHynPnuo5mInCkeMcdruP26AGMG+c6WnGEwYMBHaQHgsAqkt/Fy5Q4yPGL6ZhuXrOO0+FItE8fx+yWjH/8I6BTHadYuBD43e+cctvztWwJvP++fbjTkMAqsh/6YYpSEOD38galL5XSghO1pk3TsqVl4LCS70mdh6ZDbIQanRKmY08Z/u23QP36gE65fSGQityBHbhaKUhsx3ZcoJQWrMT169OyOWL4+GPo6kJaVp3LY/78tGyOGSZMAB55xDG7JWMga63Py/PypFKQuFAulC5KbynZYtgwkQ4dROrVs2VxFdCokUjbtiKvvGIbbetWkW3bRG6/3ZbFdUCvXiIffSSyaZPrqIkRLKvYoec+7EM9pTDAUSxXfiwRmy9yThgkmC7nEzazdgZFV/aCzBUf6WyN30uv8N0jX5KXpI9SGPiJ/EReVfq7Ugk88IDI6NGiK98lgnx5VK4sMmqUSM+eJZJZtkykZUuRunVLBPn2aNJEpHZtkSVLfCTltRUwXgslfiPDQhGKzFotB0DF4Ajh+uuLnYFfFBUBF11UoldWrgzoenho+PrryGKTlwx89cjDcliOKtVQCgtlpIzMUnpRqRj8Lo4fX+wM/IKio8WLRVq0KE767bdF+vYVqVat2Cvwi1q1It/e6dMjSbMFu4KXFsA4G5T+q5QJ6D3hiJLKdoBbb81ElkDtUwsTlGhEpWCh5s1VRma7EDkYoOQUpsKdMv8/+SZgAiZCF8K50P3555kpyjffmLXbd98FsrMzkyVzGTw0H9ULarjK8LSpSN5VFVTDkbs7AvyGZQKaT2HtSyDlAJVPZwxvnVyEi5Y87Co/X99IV+/vAJi7z6wo7065R1T/IYDUHCSh+fxn/Ify4LnzVc3EAX8ALPwuPlEuSzouHSW5uS4TdFX1/y9mlW4UtbkJlypRGJ0JsBdWq6Y5VdHhaoa65HIsR2elfftQrCbi5F5NlTthtOJZvhw4dMgqJAQ/roN+mYc7lZwKrP2WguMqqmxg82bgnnv8Juco/i24BV8ruYWvilQdpsCWOdMWnGJ17RXfKnHumgk0bw58/300pwwMW9djPa5X8gJf30guqqgmYfj47W9FFiwQfqguUMpX2qAUJr75RuTAAZFKlaK5zJ8vMmVKmFnKy0pPKXmGlxbAOHepDHnNGq+xHcajCJ29IU6UvhRL0UcpTFB3q4QOztlnB6LjY1VuynOvVPIKXz1S9YNV8TbSfrgOuX6957ZkH/HVV0XmzhXV1i3maSkt5Z9KB5XCwL59Ijk5Is2bJ6X+8MMiy5cneQbjnCbT5D4lX/DaCu6/PyLd/lLlv9R54lx91y6vqVnEo2SDvdECQzEULymFgWnTgNGjbVK+9FIgaImLZkV5rp/RuGkANkVO603tiCVLgF69gAULIiqjv/lN2mjOGSjopWKMBbiY7udVZJGk8WIdxa3MlWRr1QpguQLEYixGDyU/8FWRjz8ekZSzN8bA67jPWczb/S8T+dWvUsa7G3fjfaUgkZsLdO6cIsUdKunpqKtLAeJW3Op7zfrUh8fDy/mcc0TWrk0U0PfrJzJtmofEkqNw2JgG1EqwlFWmiZcq+LnnRCZOTMFRQyU9eXkiW7akYHIetFt2yyGl+kp+4Ksizz1XZOVKEQpFY2jVSmTcuJjLx++gQSIrVqRMoJ7Uk+1KfBhBYONGkf37RapWTZMayzZzZhomZ8HDZFhwgnmvbwluUqlUCZg9+1QKfCPWqnXK7emKguMLL3QUlZp7TysFgSefBHTjlTNYCJ6dRUzkqoVa+rX3LwTw1SOrVxc5dCiiohBrf5wldO8uwumIZ1Co++c/O4reVbrqwH2aI95UTFzYmDVL5K67UnHFhXXuLLJoUZyH+8vZMlvuV6LwPBAkthHnrg0bIrMD6ivF478qa27XLt7HxTWHjZdc4kpU9SgexQIlP+CUY+BAFylwi4Lu4/QDLsdZbTf0kqZpCF4iMg7FglSuTQbvkTvXPIEba+6801XUzdiMm5T8QPeYIrlBpk2PrdXj0hb1nG5WCgq+KpKFsJPx3n67R9WItm09rSq0RmtVad7u6bl88glAAYBrcJd1t26uozFCd6UlSkHBd0XaFYT7Sf/yF7tQG3+Ki5o1swlM7T0Xc9FbyQu4QkV1Dk/gDjAPmx3roA6OKwWF0CqS91a1qstisuajtgNcxjSbh/hw3IIKVVafB8fpvPAC8NxzjtnJOFNpuFKQCK0i+crlmMUx+ES509gHspGtG/vi5kIO0ho5MsW6qoP4yNfdZ1xkdoEGaICvlIKEr+mHaQU2/6hWM3SoyOzZNgzJ3pQ3Ul/VByg9GKXkBlOninTt6iZGEi/Nr9xwQ0RckhRk5dwre+V8pdpKgSPIlhGfFqXr1M52BJq+8LEFPJZHK7TCHiUn4L7EqIUVJ+z2PFTPbN3aPjwu5A/4A/6tFDRC65FsbVzCy1f7SGnBpbhf/ELkZz9Ly5qOgeuvA5WcYPhwEe6E8o3LLzfaC7JzZ9qklskyaaQUCoJuHfHpzZkDqO2f1KBi07/+lZrHYShlehcrpQM3W3HuGBj+8Y+0U5EZmIExSmHANIwwEo6lyUEPZcP8tQTV8Gh8JkCMwihdgZ2SMsXu3VUtf2FKFveBFLvZ3qh+ZpScvvbdZh56RbJA552XYms1hZpRs11uC2/HvxVb0xqUoL5qimdul3Rqf9r2UfNndmiDNnZBvv0zUpHca09tAkv4FpVYpopOStwoa4VXXgGipu2sgr370XCOjTC8MRobVU7viaeOmZGKZBEqVLBYsqNtk2HDUpfQYyh3ijVTssIVVwAU9IcCvmH4vUwCd5MVKoWFjFXk0KHAvHlJt8EnGsCUIylV46RZtOpKyaCFqlCVxjdtKiEVGYmReFspTGSsInkTlBVzIcQgJwd49NGoI5yf9/AenlGKB6er69bF+4RwTaUfqhYquNOavTEI4XGqkma0Inl/xUq/at/UbFpNVTqfYVyU5kOMgVbKrrsuIOWwWKJWv9Syiy4QrMAK/EkpbGS0IjnToBmbwg90zkiRQwbwFJ7S/U3LTU7t2wM06Bc6uHNLpTgnjx5CDaVMIKMVyRu65RaVxZ6nQuAwbJxYPDF+KyO9sgg19JmGoFtskat6qaxyc5dmaK6UCfivyLTLNom38XXOJ2hda3OiZ8guqlR0e/orvB3ueCPhLooK8tF6aVnsL9iV4B+Ww19FckZdrpy7sql91LZXbMPq1e6i+eWWdSrIzQ9v+J9cvjzkod63VYB770sOCsXtb9H8q69EjwCI2PQyTSLNPy6O33ijvPhWTaMkx8W7TOCZZ0RqXloku8/anonsTB5DZIjMrPJPtYCkGoGZgucmwi3LXEh1OoL4+c8B6qwqqCOTm2suQ/3HcQeLeKDwexVwtQp9GsCbodC4eF8Kh+n33hvqPTJxfz1y795IW4v9pmp53Cjao4fIBRcYrkmTRLKy+IhTRfIfRruDb6ldwvPKVpIdSnlKYYPC7dFKBk2bRqTrjuR5PkvmublwsZtW9mjoPR3Kl49Y+Y/j41EdXo0exyVje0nBdvwn/CAOGrXJMCfn/DbSpnsCdu5UW28tEryCdvjrkQd1o2mdOiLffZe6Kb32msiYMSI//WkCH3dy0yxYWOjfX2T16lOpV5bKslNpnVJYGCyDZZJSAig0//xzESdvroSIzh1GV52tw3mUOM4RI0S4a4oVGjOgFhdsLpk09xFwa7OFJUcOROjtcIdAcuq2btpUpfnV5GdH+wPNlD5VChprZa30UlqlZAnusWCjj9t9bcnnwdNfjzx2TKS+bgfbscM+69dfF5kwwbISGelJtddLBShu9w4S7dtHdr8lp1lRKkodpfeVgkZv6S2vK9miUyeRefNsg30HeH5fU2TDxW87dUCukJctmzZ5HknlSdPbJmWql6QaKNI4IU8ysJNX2iSb0nse5uFepZTgvLtmTYDfzIDhr0ceP87j2ES449UKa9aI9O5tFZLg16aNCN86M2YkeHtyUP8pOzulNWs5R+kRpZFKQeCYHJMspQlKKUEd0YULRe5RM2x6Il/g8Nw4qPhCXfsHHii5r54TOC5uOgQ30PBQHJru8go2eFqq+rdDbcOmaIqPlfyC+zimKjnGn1Qa8re/OWZ3wuivR+o5jKZH8jvJ3hcPbs2uWTPeJ+U1LVBzFEvb8F7x17+KNG4sct11zlKYI3Okm9IPSl6RIzmyR4n7NB1j7FiROXPEvdXANDk4qXFLni5dIgJG9spk6xs8S3HbNstoqTyp/dGtWyoO6zDumjZ246yDbX0nqQ3YLkpewK1xVyjR2JFrUL+HGhLcChYATBV7Tidm+orqGjTcFgMVYrg12yNodcrNqYCLF0e0K3iwihfQNAqPR3QDDpTqK61R8gwaMa9Xz4i8PKcRjeivInmmEM9nJOK3NPHk0xIKOhE2J/9ph4Cq/JQ98zoVJk6MVKLf0wPboZ1aaNbEHICVSDljjpJv0MIULV9yV5fHg9ZYBn8Vyd2ssfP2+vWLGN1hb7RRCXR707Q+xfEST4MrKDgVm4ManqR0002RcVa6yj4V0/6KAuj2SoOUEk40SIpCnVkuwfnd6p6QLG+ob9+IojaXPXlzFLwXKzglcFs6/FUkv4N6vrABjZvyUER+qLycw2dZvMi90D4Rp1/c6c1r7r7j0mVQJynFZz0QA3XTWwOsVjLG8KOB/B6+qFRX6TOlUMADstgzuWubykUutCh8VeQGrcQBAwZgAg93UuxScdYAVTriYdNEvrao/npWLf/0lG/jN1T1Igeq1YXYodHjdHTDNHjgNDFz5kwTzkOwiSVqI438S5boh1CxevUqZGUNxIwZM4x7k6ofMj4P1SZ4UDX5hwwZYtx6erjJ/3FdvPgherrOcD3djnF2RifmE/X9TPen0ZOtJ8+bjKoDq6Lau9VwiVL1FdWNu+OsjkYMtk7V8JjHyy+/bPLYoW8hpj9ixAjjPqTKSQzPzs42bv7j4d7M4/uoAdgXtMLoZvmJ2TpaY5yl0U7Ag8h3uTDs52+t1TSD0n8/hifgbx75Y7iD0jKYJ1BakWdIQyityNKKPEOewBlyG6U9srQiz5AncIbcRmmPLK3IM+QJlN5G6RP4MT2B/wE3ZQQPwk+qQAAAAABJRU5ErkJggg==;clipPath=inset(5.81% 49.12% 53.49% 12.28%);imageBorder=default;" vertex="1" parent="1">
          <mxGeometry x="550" y="153.76" width="56.57" height="45" as="geometry" />
        </mxCell>
        <mxCell id="MDaIKtW8UcgU8Lhw4XhT-89" value="\(A\)" style="text;html=1;align=center;verticalAlign=middle;resizable=0;points=[];autosize=1;strokeColor=none;fillColor=none;fontSize=16;" vertex="1" parent="1">
          <mxGeometry x="553.19" y="161.19000000000005" width="50" height="30" as="geometry" />
        </mxCell>
        <mxCell id="MDaIKtW8UcgU8Lhw4XhT-104" style="edgeStyle=elbowEdgeStyle;rounded=0;orthogonalLoop=1;jettySize=auto;html=1;exitX=1;exitY=0.5;exitDx=0;exitDy=0;entryX=0;entryY=0.5;entryDx=0;entryDy=0;strokeWidth=2;" edge="1" parent="1" source="MDaIKtW8UcgU8Lhw4XhT-91" target="MDaIKtW8UcgU8Lhw4XhT-97">
          <mxGeometry relative="1" as="geometry">
            <mxPoint x="670" y="200.0000000000001" as="targetPoint" />
          </mxGeometry>
        </mxCell>
        <mxCell id="MDaIKtW8UcgU8Lhw4XhT-91" value="" style="shape=image;verticalLabelPosition=bottom;labelBackgroundColor=default;verticalAlign=top;aspect=fixed;imageAspect=0;image=data:image/png,iVBORw0KGgoAAAANSUhEUgAAAHIAAABWCAYAAAAT4MJdAAAAAXNSR0IArs4c6QAAAIRlWElmTU0AKgAAAAgABQESAAMAAAABAAEAAAEaAAUAAAABAAAASgEbAAUAAAABAAAAUgEoAAMAAAABAAIAAIdpAAQAAAABAAAAWgAAAAAAAACQAAAAAQAAAJAAAAABAAOgAQADAAAAAQABAACgAgAEAAAAAQAAAHKgAwAEAAAAAQAAAFYAAAAAVgf6RwAAAAlwSFlzAAAWJQAAFiUBSVIk8AAAEmZJREFUeAHtXQmUVMUVfWziiREMizFIUKKgogjIph4RgqCIAZEkGlFBhaMQInIEYWIcUAmIYIisKqAIBxAQgcEA8bgMSAiIRDQCCjiCsojssjoDMzfvVncP3T3/d/+1I5y578z0r6pXy/9V9X9VvVevyogCCv6W4vR9AmVP36KXljz+CZRWZPzTOI2vSyvyNK68+KKXVmT80ziNr8v7KXtRUZGcPHlSypQpIxUqVOCgSU6cOFHsZtoFBQUmi7POOktOKuWfyNfRlUjFChWlfJnyhp/xypcvL2XLljXpMd2Yu7CwUPhXrlw58xfLk7zkibmdloGFYRmZJ8vMeLyH+Dxj7nR5xsqQfN8xN/PifROx5xDLM1aG2H0m58l7Zvosn2Noxp7wwQcf4JprrsGDDz5o4ufl5aFx48a47bbbjPvYsWNo2LAhGjZoiD4FfaAVCGmnf431b4ugv9J93e4zaaxYscLEeeKJJ9CkSRO88cYbxj127FjjHjNmjHG/+eabxp2VlWXcK1euNPG7du1q3Fu3bjXhN998s3HrA0KDBg1MOY4cOWL8OnToYMq5ceNG4+7Zs6dxv/POO8b97LPPmjQmT55s3LNmzTLuQYMGGXdubq5xP/TQQ8b9xRdfoFGjRujUqZNx79mzR/NsjLPPboFPPzVehp/Pavfu3cajS5cuJs9Vq1YZN9Pms5s6dapxT58+HXyeTmEq2ymzF77n8bypwE3YVCL6KqxCWaU5SqHh6ac5t4r8VawIDB8eWlZMmO2P2f3618BrrwFsC9deG/F7773wsg6tIvORj4uUnlU6qWSHAhTg90p9lQJF795AlSrA2rUAe+Lx48Dhw4C+RXD++cBjjwWaHZO/7DKgf/9IVsmJM5wdWF8O+OGH5FD/7lAqcj/2m0pkj3MCVvRjSoFU5sGDwOWXA5MmASdOWGdfUACMHw9cdRVw9Kg1jwtfvi1/+Usg+pZMGXPZMuDii4G9e1OyuQ4MvCIP4zCuUvpIyQ1O4ATuVxqr5BnffQfUrevsiTITPlV2o/37PWd54ABQpw7w2WfOk/jwQ+DKKwHGDQqBV+QduAOvK3nBURzFtUrrlFyDr82rrwZ08OMKS5dG4tn13jSJ6VgOTMItFi0CbrwRKCx0G9OaP9CKnI3ZuEvJD7ZgC2oruQZHynPnuo5mInCkeMcdruP26AGMG+c6WnGEwYMBHaQHgsAqkt/Fy5Q4yPGL6ZhuXrOO0+FItE8fx+yWjH/8I6BTHadYuBD43e+cctvztWwJvP++fbjTkMAqsh/6YYpSEOD38galL5XSghO1pk3TsqVl4LCS70mdh6ZDbIQanRKmY08Z/u23QP36gE65fSGQityBHbhaKUhsx3ZcoJQWrMT169OyOWL4+GPo6kJaVp3LY/78tGyOGSZMAB55xDG7JWMga63Py/PypFKQuFAulC5KbynZYtgwkQ4dROrVs2VxFdCokUjbtiKvvGIbbetWkW3bRG6/3ZbFdUCvXiIffSSyaZPrqIkRLKvYoec+7EM9pTDAUSxXfiwRmy9yThgkmC7nEzazdgZFV/aCzBUf6WyN30uv8N0jX5KXpI9SGPiJ/EReVfq7Ugk88IDI6NGiK98lgnx5VK4sMmqUSM+eJZJZtkykZUuRunVLBPn2aNJEpHZtkSVLfCTltRUwXgslfiPDQhGKzFotB0DF4Ajh+uuLnYFfFBUBF11UoldWrgzoenho+PrryGKTlwx89cjDcliOKtVQCgtlpIzMUnpRqRj8Lo4fX+wM/IKio8WLRVq0KE767bdF+vYVqVat2Cvwi1q1It/e6dMjSbMFu4KXFsA4G5T+q5QJ6D3hiJLKdoBbb81ElkDtUwsTlGhEpWCh5s1VRma7EDkYoOQUpsKdMv8/+SZgAiZCF8K50P3555kpyjffmLXbd98FsrMzkyVzGTw0H9ULarjK8LSpSN5VFVTDkbs7AvyGZQKaT2HtSyDlAJVPZwxvnVyEi5Y87Co/X99IV+/vAJi7z6wo7065R1T/IYDUHCSh+fxn/Ify4LnzVc3EAX8ALPwuPlEuSzouHSW5uS4TdFX1/y9mlW4UtbkJlypRGJ0JsBdWq6Y5VdHhaoa65HIsR2elfftQrCbi5F5NlTthtOJZvhw4dMgqJAQ/roN+mYc7lZwKrP2WguMqqmxg82bgnnv8Juco/i24BV8ruYWvilQdpsCWOdMWnGJ17RXfKnHumgk0bw58/300pwwMW9djPa5X8gJf30guqqgmYfj47W9FFiwQfqguUMpX2qAUJr75RuTAAZFKlaK5zJ8vMmVKmFnKy0pPKXmGlxbAOHepDHnNGq+xHcajCJ29IU6UvhRL0UcpTFB3q4QOztlnB6LjY1VuynOvVPIKXz1S9YNV8TbSfrgOuX6957ZkH/HVV0XmzhXV1i3maSkt5Z9KB5XCwL59Ijk5Is2bJ6X+8MMiy5cneQbjnCbT5D4lX/DaCu6/PyLd/lLlv9R54lx91y6vqVnEo2SDvdECQzEULymFgWnTgNGjbVK+9FIgaImLZkV5rp/RuGkANkVO603tiCVLgF69gAULIiqjv/lN2mjOGSjopWKMBbiY7udVZJGk8WIdxa3MlWRr1QpguQLEYixGDyU/8FWRjz8ekZSzN8bA67jPWczb/S8T+dWvUsa7G3fjfaUgkZsLdO6cIsUdKunpqKtLAeJW3Op7zfrUh8fDy/mcc0TWrk0U0PfrJzJtmofEkqNw2JgG1EqwlFWmiZcq+LnnRCZOTMFRQyU9eXkiW7akYHIetFt2yyGl+kp+4Ksizz1XZOVKEQpFY2jVSmTcuJjLx++gQSIrVqRMoJ7Uk+1KfBhBYONGkf37RapWTZMayzZzZhomZ8HDZFhwgnmvbwluUqlUCZg9+1QKfCPWqnXK7emKguMLL3QUlZp7TysFgSefBHTjlTNYCJ6dRUzkqoVa+rX3LwTw1SOrVxc5dCiiohBrf5wldO8uwumIZ1Co++c/O4reVbrqwH2aI95UTFzYmDVL5K67UnHFhXXuLLJoUZyH+8vZMlvuV6LwPBAkthHnrg0bIrMD6ivF478qa27XLt7HxTWHjZdc4kpU9SgexQIlP+CUY+BAFylwi4Lu4/QDLsdZbTf0kqZpCF4iMg7FglSuTQbvkTvXPIEba+6801XUzdiMm5T8QPeYIrlBpk2PrdXj0hb1nG5WCgq+KpKFsJPx3n67R9WItm09rSq0RmtVad7u6bl88glAAYBrcJd1t26uozFCd6UlSkHBd0XaFYT7Sf/yF7tQG3+Ki5o1swlM7T0Xc9FbyQu4QkV1Dk/gDjAPmx3roA6OKwWF0CqS91a1qstisuajtgNcxjSbh/hw3IIKVVafB8fpvPAC8NxzjtnJOFNpuFKQCK0i+crlmMUx+ES509gHspGtG/vi5kIO0ho5MsW6qoP4yNfdZ1xkdoEGaICvlIKEr+mHaQU2/6hWM3SoyOzZNgzJ3pQ3Ul/VByg9GKXkBlOninTt6iZGEi/Nr9xwQ0RckhRk5dwre+V8pdpKgSPIlhGfFqXr1M52BJq+8LEFPJZHK7TCHiUn4L7EqIUVJ+z2PFTPbN3aPjwu5A/4A/6tFDRC65FsbVzCy1f7SGnBpbhf/ELkZz9Ly5qOgeuvA5WcYPhwEe6E8o3LLzfaC7JzZ9qklskyaaQUCoJuHfHpzZkDqO2f1KBi07/+lZrHYShlehcrpQM3W3HuGBj+8Y+0U5EZmIExSmHANIwwEo6lyUEPZcP8tQTV8Gh8JkCMwihdgZ2SMsXu3VUtf2FKFveBFLvZ3qh+ZpScvvbdZh56RbJA552XYms1hZpRs11uC2/HvxVb0xqUoL5qimdul3Rqf9r2UfNndmiDNnZBvv0zUpHca09tAkv4FpVYpopOStwoa4VXXgGipu2sgr370XCOjTC8MRobVU7viaeOmZGKZBEqVLBYsqNtk2HDUpfQYyh3ijVTssIVVwAU9IcCvmH4vUwCd5MVKoWFjFXk0KHAvHlJt8EnGsCUIylV46RZtOpKyaCFqlCVxjdtKiEVGYmReFspTGSsInkTlBVzIcQgJwd49NGoI5yf9/AenlGKB6er69bF+4RwTaUfqhYquNOavTEI4XGqkma0Inl/xUq/at/UbFpNVTqfYVyU5kOMgVbKrrsuIOWwWKJWv9Syiy4QrMAK/EkpbGS0IjnToBmbwg90zkiRQwbwFJ7S/U3LTU7t2wM06Bc6uHNLpTgnjx5CDaVMIKMVyRu65RaVxZ6nQuAwbJxYPDF+KyO9sgg19JmGoFtskat6qaxyc5dmaK6UCfivyLTLNom38XXOJ2hda3OiZ8guqlR0e/orvB3ueCPhLooK8tF6aVnsL9iV4B+Ww19FckZdrpy7sql91LZXbMPq1e6i+eWWdSrIzQ9v+J9cvjzkod63VYB770sOCsXtb9H8q69EjwCI2PQyTSLNPy6O33ijvPhWTaMkx8W7TOCZZ0RqXloku8/anonsTB5DZIjMrPJPtYCkGoGZgucmwi3LXEh1OoL4+c8B6qwqqCOTm2suQ/3HcQeLeKDwexVwtQp9GsCbodC4eF8Kh+n33hvqPTJxfz1y795IW4v9pmp53Cjao4fIBRcYrkmTRLKy+IhTRfIfRruDb6ldwvPKVpIdSnlKYYPC7dFKBk2bRqTrjuR5PkvmublwsZtW9mjoPR3Kl49Y+Y/j41EdXo0exyVje0nBdvwn/CAOGrXJMCfn/DbSpnsCdu5UW28tEryCdvjrkQd1o2mdOiLffZe6Kb32msiYMSI//WkCH3dy0yxYWOjfX2T16lOpV5bKslNpnVJYGCyDZZJSAig0//xzESdvroSIzh1GV52tw3mUOM4RI0S4a4oVGjOgFhdsLpk09xFwa7OFJUcOROjtcIdAcuq2btpUpfnV5GdH+wPNlD5VChprZa30UlqlZAnusWCjj9t9bcnnwdNfjzx2TKS+bgfbscM+69dfF5kwwbISGelJtddLBShu9w4S7dtHdr8lp1lRKkodpfeVgkZv6S2vK9miUyeRefNsg30HeH5fU2TDxW87dUCukJctmzZ5HknlSdPbJmWql6QaKNI4IU8ysJNX2iSb0nse5uFepZTgvLtmTYDfzIDhr0ceP87j2ES449UKa9aI9O5tFZLg16aNCN86M2YkeHtyUP8pOzulNWs5R+kRpZFKQeCYHJMspQlKKUEd0YULRe5RM2x6Il/g8Nw4qPhCXfsHHii5r54TOC5uOgQ30PBQHJru8go2eFqq+rdDbcOmaIqPlfyC+zimKjnGn1Qa8re/OWZ3wuivR+o5jKZH8jvJ3hcPbs2uWTPeJ+U1LVBzFEvb8F7x17+KNG4sct11zlKYI3Okm9IPSl6RIzmyR4n7NB1j7FiROXPEvdXANDk4qXFLni5dIgJG9spk6xs8S3HbNstoqTyp/dGtWyoO6zDumjZ246yDbX0nqQ3YLkpewK1xVyjR2JFrUL+HGhLcChYATBV7Tidm+orqGjTcFgMVYrg12yNodcrNqYCLF0e0K3iwihfQNAqPR3QDDpTqK61R8gwaMa9Xz4i8PKcRjeivInmmEM9nJOK3NPHk0xIKOhE2J/9ph4Cq/JQ98zoVJk6MVKLf0wPboZ1aaNbEHICVSDljjpJv0MIULV9yV5fHg9ZYBn8Vyd2ssfP2+vWLGN1hb7RRCXR707Q+xfEST4MrKDgVm4ManqR0002RcVa6yj4V0/6KAuj2SoOUEk40SIpCnVkuwfnd6p6QLG+ob9+IojaXPXlzFLwXKzglcFs6/FUkv4N6vrABjZvyUER+qLycw2dZvMi90D4Rp1/c6c1r7r7j0mVQJynFZz0QA3XTWwOsVjLG8KOB/B6+qFRX6TOlUMADstgzuWubykUutCh8VeQGrcQBAwZgAg93UuxScdYAVTriYdNEvrao/npWLf/0lG/jN1T1Igeq1YXYodHjdHTDNHjgNDFz5kwTzkOwiSVqI438S5boh1CxevUqZGUNxIwZM4x7k6ofMj4P1SZ4UDX5hwwZYtx6erjJ/3FdvPgherrOcD3djnF2RifmE/X9TPen0ZOtJ8+bjKoDq6Lau9VwiVL1FdWNu+OsjkYMtk7V8JjHyy+/bPLYoW8hpj9ixAjjPqTKSQzPzs42bv7j4d7M4/uoAdgXtMLoZvmJ2TpaY5yl0U7Ag8h3uTDs52+t1TSD0n8/hifgbx75Y7iD0jKYJ1BakWdIQyityNKKPEOewBlyG6U9srQiz5AncIbcRmmPLK3IM+QJlN5G6RP4MT2B/wE3ZQQPwk+qQAAAAABJRU5ErkJggg==;clipPath=inset(5.81% 10.53% 53.49% 50.88%);imageBorder=default;" vertex="1" parent="1">
          <mxGeometry x="550.1" y="210.02" width="56.57" height="45" as="geometry" />
        </mxCell>
        <mxCell id="MDaIKtW8UcgU8Lhw4XhT-92" value="\(B\)" style="text;html=1;align=center;verticalAlign=middle;resizable=0;points=[];autosize=1;strokeColor=none;fillColor=none;fontSize=16;" vertex="1" parent="1">
          <mxGeometry x="553.2900000000001" y="217.49999999999991" width="50" height="30" as="geometry" />
        </mxCell>
        <mxCell id="MDaIKtW8UcgU8Lhw4XhT-105" style="edgeStyle=elbowEdgeStyle;rounded=0;orthogonalLoop=1;jettySize=auto;html=1;exitX=1;exitY=0.5;exitDx=0;exitDy=0;entryX=0;entryY=0.5;entryDx=0;entryDy=0;strokeWidth=2;" edge="1" parent="1" source="MDaIKtW8UcgU8Lhw4XhT-93" target="MDaIKtW8UcgU8Lhw4XhT-98">
          <mxGeometry relative="1" as="geometry" />
        </mxCell>
        <mxCell id="MDaIKtW8UcgU8Lhw4XhT-93" value="" style="shape=image;verticalLabelPosition=bottom;labelBackgroundColor=default;verticalAlign=top;aspect=fixed;imageAspect=0;image=data:image/png,iVBORw0KGgoAAAANSUhEUgAAAHIAAABWCAYAAAAT4MJdAAAAAXNSR0IArs4c6QAAAIRlWElmTU0AKgAAAAgABQESAAMAAAABAAEAAAEaAAUAAAABAAAASgEbAAUAAAABAAAAUgEoAAMAAAABAAIAAIdpAAQAAAABAAAAWgAAAAAAAACQAAAAAQAAAJAAAAABAAOgAQADAAAAAQABAACgAgAEAAAAAQAAAHKgAwAEAAAAAQAAAFYAAAAAVgf6RwAAAAlwSFlzAAAWJQAAFiUBSVIk8AAAEmZJREFUeAHtXQmUVMUVfWziiREMizFIUKKgogjIph4RgqCIAZEkGlFBhaMQInIEYWIcUAmIYIisKqAIBxAQgcEA8bgMSAiIRDQCCjiCsojssjoDMzfvVncP3T3/d/+1I5y578z0r6pXy/9V9X9VvVevyogCCv6W4vR9AmVP36KXljz+CZRWZPzTOI2vSyvyNK68+KKXVmT80ziNr8v7KXtRUZGcPHlSypQpIxUqVOCgSU6cOFHsZtoFBQUmi7POOktOKuWfyNfRlUjFChWlfJnyhp/xypcvL2XLljXpMd2Yu7CwUPhXrlw58xfLk7zkibmdloGFYRmZJ8vMeLyH+Dxj7nR5xsqQfN8xN/PifROx5xDLM1aG2H0m58l7Zvosn2Noxp7wwQcf4JprrsGDDz5o4ufl5aFx48a47bbbjPvYsWNo2LAhGjZoiD4FfaAVCGmnf431b4ugv9J93e4zaaxYscLEeeKJJ9CkSRO88cYbxj127FjjHjNmjHG/+eabxp2VlWXcK1euNPG7du1q3Fu3bjXhN998s3HrA0KDBg1MOY4cOWL8OnToYMq5ceNG4+7Zs6dxv/POO8b97LPPmjQmT55s3LNmzTLuQYMGGXdubq5xP/TQQ8b9xRdfoFGjRujUqZNx79mzR/NsjLPPboFPPzVehp/Pavfu3cajS5cuJs9Vq1YZN9Pms5s6dapxT58+HXyeTmEq2ymzF77n8bypwE3YVCL6KqxCWaU5SqHh6ac5t4r8VawIDB8eWlZMmO2P2f3618BrrwFsC9deG/F7773wsg6tIvORj4uUnlU6qWSHAhTg90p9lQJF795AlSrA2rUAe+Lx48Dhw4C+RXD++cBjjwWaHZO/7DKgf/9IVsmJM5wdWF8O+OGH5FD/7lAqcj/2m0pkj3MCVvRjSoFU5sGDwOWXA5MmASdOWGdfUACMHw9cdRVw9Kg1jwtfvi1/+Usg+pZMGXPZMuDii4G9e1OyuQ4MvCIP4zCuUvpIyQ1O4ATuVxqr5BnffQfUrevsiTITPlV2o/37PWd54ABQpw7w2WfOk/jwQ+DKKwHGDQqBV+QduAOvK3nBURzFtUrrlFyDr82rrwZ08OMKS5dG4tn13jSJ6VgOTMItFi0CbrwRKCx0G9OaP9CKnI3ZuEvJD7ZgC2oruQZHynPnuo5mInCkeMcdruP26AGMG+c6WnGEwYMBHaQHgsAqkt/Fy5Q4yPGL6ZhuXrOO0+FItE8fx+yWjH/8I6BTHadYuBD43e+cctvztWwJvP++fbjTkMAqsh/6YYpSEOD38galL5XSghO1pk3TsqVl4LCS70mdh6ZDbIQanRKmY08Z/u23QP36gE65fSGQityBHbhaKUhsx3ZcoJQWrMT169OyOWL4+GPo6kJaVp3LY/78tGyOGSZMAB55xDG7JWMga63Py/PypFKQuFAulC5KbynZYtgwkQ4dROrVs2VxFdCokUjbtiKvvGIbbetWkW3bRG6/3ZbFdUCvXiIffSSyaZPrqIkRLKvYoec+7EM9pTDAUSxXfiwRmy9yThgkmC7nEzazdgZFV/aCzBUf6WyN30uv8N0jX5KXpI9SGPiJ/EReVfq7Ugk88IDI6NGiK98lgnx5VK4sMmqUSM+eJZJZtkykZUuRunVLBPn2aNJEpHZtkSVLfCTltRUwXgslfiPDQhGKzFotB0DF4Ajh+uuLnYFfFBUBF11UoldWrgzoenho+PrryGKTlwx89cjDcliOKtVQCgtlpIzMUnpRqRj8Lo4fX+wM/IKio8WLRVq0KE767bdF+vYVqVat2Cvwi1q1It/e6dMjSbMFu4KXFsA4G5T+q5QJ6D3hiJLKdoBbb81ElkDtUwsTlGhEpWCh5s1VRma7EDkYoOQUpsKdMv8/+SZgAiZCF8K50P3555kpyjffmLXbd98FsrMzkyVzGTw0H9ULarjK8LSpSN5VFVTDkbs7AvyGZQKaT2HtSyDlAJVPZwxvnVyEi5Y87Co/X99IV+/vAJi7z6wo7065R1T/IYDUHCSh+fxn/Ify4LnzVc3EAX8ALPwuPlEuSzouHSW5uS4TdFX1/y9mlW4UtbkJlypRGJ0JsBdWq6Y5VdHhaoa65HIsR2elfftQrCbi5F5NlTthtOJZvhw4dMgqJAQ/roN+mYc7lZwKrP2WguMqqmxg82bgnnv8Juco/i24BV8ruYWvilQdpsCWOdMWnGJ17RXfKnHumgk0bw58/300pwwMW9djPa5X8gJf30guqqgmYfj47W9FFiwQfqguUMpX2qAUJr75RuTAAZFKlaK5zJ8vMmVKmFnKy0pPKXmGlxbAOHepDHnNGq+xHcajCJ29IU6UvhRL0UcpTFB3q4QOztlnB6LjY1VuynOvVPIKXz1S9YNV8TbSfrgOuX6957ZkH/HVV0XmzhXV1i3maSkt5Z9KB5XCwL59Ijk5Is2bJ6X+8MMiy5cneQbjnCbT5D4lX/DaCu6/PyLd/lLlv9R54lx91y6vqVnEo2SDvdECQzEULymFgWnTgNGjbVK+9FIgaImLZkV5rp/RuGkANkVO603tiCVLgF69gAULIiqjv/lN2mjOGSjopWKMBbiY7udVZJGk8WIdxa3MlWRr1QpguQLEYixGDyU/8FWRjz8ekZSzN8bA67jPWczb/S8T+dWvUsa7G3fjfaUgkZsLdO6cIsUdKunpqKtLAeJW3Op7zfrUh8fDy/mcc0TWrk0U0PfrJzJtmofEkqNw2JgG1EqwlFWmiZcq+LnnRCZOTMFRQyU9eXkiW7akYHIetFt2yyGl+kp+4Ksizz1XZOVKEQpFY2jVSmTcuJjLx++gQSIrVqRMoJ7Uk+1KfBhBYONGkf37RapWTZMayzZzZhomZ8HDZFhwgnmvbwluUqlUCZg9+1QKfCPWqnXK7emKguMLL3QUlZp7TysFgSefBHTjlTNYCJ6dRUzkqoVa+rX3LwTw1SOrVxc5dCiiohBrf5wldO8uwumIZ1Co++c/O4reVbrqwH2aI95UTFzYmDVL5K67UnHFhXXuLLJoUZyH+8vZMlvuV6LwPBAkthHnrg0bIrMD6ivF478qa27XLt7HxTWHjZdc4kpU9SgexQIlP+CUY+BAFylwi4Lu4/QDLsdZbTf0kqZpCF4iMg7FglSuTQbvkTvXPIEba+6801XUzdiMm5T8QPeYIrlBpk2PrdXj0hb1nG5WCgq+KpKFsJPx3n67R9WItm09rSq0RmtVad7u6bl88glAAYBrcJd1t26uozFCd6UlSkHBd0XaFYT7Sf/yF7tQG3+Ki5o1swlM7T0Xc9FbyQu4QkV1Dk/gDjAPmx3roA6OKwWF0CqS91a1qstisuajtgNcxjSbh/hw3IIKVVafB8fpvPAC8NxzjtnJOFNpuFKQCK0i+crlmMUx+ES509gHspGtG/vi5kIO0ho5MsW6qoP4yNfdZ1xkdoEGaICvlIKEr+mHaQU2/6hWM3SoyOzZNgzJ3pQ3Ul/VByg9GKXkBlOninTt6iZGEi/Nr9xwQ0RckhRk5dwre+V8pdpKgSPIlhGfFqXr1M52BJq+8LEFPJZHK7TCHiUn4L7EqIUVJ+z2PFTPbN3aPjwu5A/4A/6tFDRC65FsbVzCy1f7SGnBpbhf/ELkZz9Ly5qOgeuvA5WcYPhwEe6E8o3LLzfaC7JzZ9qklskyaaQUCoJuHfHpzZkDqO2f1KBi07/+lZrHYShlehcrpQM3W3HuGBj+8Y+0U5EZmIExSmHANIwwEo6lyUEPZcP8tQTV8Gh8JkCMwihdgZ2SMsXu3VUtf2FKFveBFLvZ3qh+ZpScvvbdZh56RbJA552XYms1hZpRs11uC2/HvxVb0xqUoL5qimdul3Rqf9r2UfNndmiDNnZBvv0zUpHca09tAkv4FpVYpopOStwoa4VXXgGipu2sgr370XCOjTC8MRobVU7viaeOmZGKZBEqVLBYsqNtk2HDUpfQYyh3ijVTssIVVwAU9IcCvmH4vUwCd5MVKoWFjFXk0KHAvHlJt8EnGsCUIylV46RZtOpKyaCFqlCVxjdtKiEVGYmReFspTGSsInkTlBVzIcQgJwd49NGoI5yf9/AenlGKB6er69bF+4RwTaUfqhYquNOavTEI4XGqkma0Inl/xUq/at/UbFpNVTqfYVyU5kOMgVbKrrsuIOWwWKJWv9Syiy4QrMAK/EkpbGS0IjnToBmbwg90zkiRQwbwFJ7S/U3LTU7t2wM06Bc6uHNLpTgnjx5CDaVMIKMVyRu65RaVxZ6nQuAwbJxYPDF+KyO9sgg19JmGoFtskat6qaxyc5dmaK6UCfivyLTLNom38XXOJ2hda3OiZ8guqlR0e/orvB3ueCPhLooK8tF6aVnsL9iV4B+Ww19FckZdrpy7sql91LZXbMPq1e6i+eWWdSrIzQ9v+J9cvjzkod63VYB770sOCsXtb9H8q69EjwCI2PQyTSLNPy6O33ijvPhWTaMkx8W7TOCZZ0RqXloku8/anonsTB5DZIjMrPJPtYCkGoGZgucmwi3LXEh1OoL4+c8B6qwqqCOTm2suQ/3HcQeLeKDwexVwtQp9GsCbodC4eF8Kh+n33hvqPTJxfz1y795IW4v9pmp53Cjao4fIBRcYrkmTRLKy+IhTRfIfRruDb6ldwvPKVpIdSnlKYYPC7dFKBk2bRqTrjuR5PkvmublwsZtW9mjoPR3Kl49Y+Y/j41EdXo0exyVje0nBdvwn/CAOGrXJMCfn/DbSpnsCdu5UW28tEryCdvjrkQd1o2mdOiLffZe6Kb32msiYMSI//WkCH3dy0yxYWOjfX2T16lOpV5bKslNpnVJYGCyDZZJSAig0//xzESdvroSIzh1GV52tw3mUOM4RI0S4a4oVGjOgFhdsLpk09xFwa7OFJUcOROjtcIdAcuq2btpUpfnV5GdH+wPNlD5VChprZa30UlqlZAnusWCjj9t9bcnnwdNfjzx2TKS+bgfbscM+69dfF5kwwbISGelJtddLBShu9w4S7dtHdr8lp1lRKkodpfeVgkZv6S2vK9miUyeRefNsg30HeH5fU2TDxW87dUCukJctmzZ5HknlSdPbJmWql6QaKNI4IU8ysJNX2iSb0nse5uFepZTgvLtmTYDfzIDhr0ceP87j2ES449UKa9aI9O5tFZLg16aNCN86M2YkeHtyUP8pOzulNWs5R+kRpZFKQeCYHJMspQlKKUEd0YULRe5RM2x6Il/g8Nw4qPhCXfsHHii5r54TOC5uOgQ30PBQHJru8go2eFqq+rdDbcOmaIqPlfyC+zimKjnGn1Qa8re/OWZ3wuivR+o5jKZH8jvJ3hcPbs2uWTPeJ+U1LVBzFEvb8F7x17+KNG4sct11zlKYI3Okm9IPSl6RIzmyR4n7NB1j7FiROXPEvdXANDk4qXFLni5dIgJG9spk6xs8S3HbNstoqTyp/dGtWyoO6zDumjZ246yDbX0nqQ3YLkpewK1xVyjR2JFrUL+HGhLcChYATBV7Tidm+orqGjTcFgMVYrg12yNodcrNqYCLF0e0K3iwihfQNAqPR3QDDpTqK61R8gwaMa9Xz4i8PKcRjeivInmmEM9nJOK3NPHk0xIKOhE2J/9ph4Cq/JQ98zoVJk6MVKLf0wPboZ1aaNbEHICVSDljjpJv0MIULV9yV5fHg9ZYBn8Vyd2ssfP2+vWLGN1hb7RRCXR707Q+xfEST4MrKDgVm4ManqR0002RcVa6yj4V0/6KAuj2SoOUEk40SIpCnVkuwfnd6p6QLG+ob9+IojaXPXlzFLwXKzglcFs6/FUkv4N6vrABjZvyUER+qLycw2dZvMi90D4Rp1/c6c1r7r7j0mVQJynFZz0QA3XTWwOsVjLG8KOB/B6+qFRX6TOlUMADstgzuWubykUutCh8VeQGrcQBAwZgAg93UuxScdYAVTriYdNEvrao/npWLf/0lG/jN1T1Igeq1YXYodHjdHTDNHjgNDFz5kwTzkOwiSVqI438S5boh1CxevUqZGUNxIwZM4x7k6ofMj4P1SZ4UDX5hwwZYtx6erjJ/3FdvPgherrOcD3djnF2RifmE/X9TPen0ZOtJ8+bjKoDq6Lau9VwiVL1FdWNu+OsjkYMtk7V8JjHyy+/bPLYoW8hpj9ixAjjPqTKSQzPzs42bv7j4d7M4/uoAdgXtMLoZvmJ2TpaY5yl0U7Ag8h3uTDs52+t1TSD0n8/hifgbx75Y7iD0jKYJ1BakWdIQyityNKKPEOewBlyG6U9srQiz5AncIbcRmmPLK3IM+QJlN5G6RP4MT2B/wE3ZQQPwk+qQAAAAABJRU5ErkJggg==;clipPath=inset(46.51% 49.12% 12.79% 12.28%);imageBorder=default;" vertex="1" parent="1">
          <mxGeometry x="550.11" y="267.5199999999999" width="56.57" height="45" as="geometry" />
        </mxCell>
        <mxCell id="MDaIKtW8UcgU8Lhw4XhT-94" value="\(C\)" style="text;html=1;align=center;verticalAlign=middle;resizable=0;points=[];autosize=1;strokeColor=none;fillColor=none;fontSize=16;" vertex="1" parent="1">
          <mxGeometry x="553.3000000000001" y="274.90000000000003" width="50" height="30" as="geometry" />
        </mxCell>
        <mxCell id="MDaIKtW8UcgU8Lhw4XhT-106" style="edgeStyle=elbowEdgeStyle;rounded=0;orthogonalLoop=1;jettySize=auto;html=1;exitX=1;exitY=0.5;exitDx=0;exitDy=0;entryX=0;entryY=0.5;entryDx=0;entryDy=0;strokeWidth=2;" edge="1" parent="1" source="MDaIKtW8UcgU8Lhw4XhT-95" target="MDaIKtW8UcgU8Lhw4XhT-98">
          <mxGeometry relative="1" as="geometry">
            <mxPoint x="670" y="310.0000000000001" as="targetPoint" />
          </mxGeometry>
        </mxCell>
        <mxCell id="MDaIKtW8UcgU8Lhw4XhT-95" value="" style="shape=image;verticalLabelPosition=bottom;labelBackgroundColor=default;verticalAlign=top;aspect=fixed;imageAspect=0;image=data:image/png,iVBORw0KGgoAAAANSUhEUgAAAHIAAABWCAYAAAAT4MJdAAAAAXNSR0IArs4c6QAAAIRlWElmTU0AKgAAAAgABQESAAMAAAABAAEAAAEaAAUAAAABAAAASgEbAAUAAAABAAAAUgEoAAMAAAABAAIAAIdpAAQAAAABAAAAWgAAAAAAAACQAAAAAQAAAJAAAAABAAOgAQADAAAAAQABAACgAgAEAAAAAQAAAHKgAwAEAAAAAQAAAFYAAAAAVgf6RwAAAAlwSFlzAAAWJQAAFiUBSVIk8AAAEmZJREFUeAHtXQmUVMUVfWziiREMizFIUKKgogjIph4RgqCIAZEkGlFBhaMQInIEYWIcUAmIYIisKqAIBxAQgcEA8bgMSAiIRDQCCjiCsojssjoDMzfvVncP3T3/d/+1I5y578z0r6pXy/9V9X9VvVevyogCCv6W4vR9AmVP36KXljz+CZRWZPzTOI2vSyvyNK68+KKXVmT80ziNr8v7KXtRUZGcPHlSypQpIxUqVOCgSU6cOFHsZtoFBQUmi7POOktOKuWfyNfRlUjFChWlfJnyhp/xypcvL2XLljXpMd2Yu7CwUPhXrlw58xfLk7zkibmdloGFYRmZJ8vMeLyH+Dxj7nR5xsqQfN8xN/PifROx5xDLM1aG2H0m58l7Zvosn2Noxp7wwQcf4JprrsGDDz5o4ufl5aFx48a47bbbjPvYsWNo2LAhGjZoiD4FfaAVCGmnf431b4ugv9J93e4zaaxYscLEeeKJJ9CkSRO88cYbxj127FjjHjNmjHG/+eabxp2VlWXcK1euNPG7du1q3Fu3bjXhN998s3HrA0KDBg1MOY4cOWL8OnToYMq5ceNG4+7Zs6dxv/POO8b97LPPmjQmT55s3LNmzTLuQYMGGXdubq5xP/TQQ8b9xRdfoFGjRujUqZNx79mzR/NsjLPPboFPPzVehp/Pavfu3cajS5cuJs9Vq1YZN9Pms5s6dapxT58+HXyeTmEq2ymzF77n8bypwE3YVCL6KqxCWaU5SqHh6ac5t4r8VawIDB8eWlZMmO2P2f3618BrrwFsC9deG/F7773wsg6tIvORj4uUnlU6qWSHAhTg90p9lQJF795AlSrA2rUAe+Lx48Dhw4C+RXD++cBjjwWaHZO/7DKgf/9IVsmJM5wdWF8O+OGH5FD/7lAqcj/2m0pkj3MCVvRjSoFU5sGDwOWXA5MmASdOWGdfUACMHw9cdRVw9Kg1jwtfvi1/+Usg+pZMGXPZMuDii4G9e1OyuQ4MvCIP4zCuUvpIyQ1O4ATuVxqr5BnffQfUrevsiTITPlV2o/37PWd54ABQpw7w2WfOk/jwQ+DKKwHGDQqBV+QduAOvK3nBURzFtUrrlFyDr82rrwZ08OMKS5dG4tn13jSJ6VgOTMItFi0CbrwRKCx0G9OaP9CKnI3ZuEvJD7ZgC2oruQZHynPnuo5mInCkeMcdruP26AGMG+c6WnGEwYMBHaQHgsAqkt/Fy5Q4yPGL6ZhuXrOO0+FItE8fx+yWjH/8I6BTHadYuBD43e+cctvztWwJvP++fbjTkMAqsh/6YYpSEOD38galL5XSghO1pk3TsqVl4LCS70mdh6ZDbIQanRKmY08Z/u23QP36gE65fSGQityBHbhaKUhsx3ZcoJQWrMT169OyOWL4+GPo6kJaVp3LY/78tGyOGSZMAB55xDG7JWMga63Py/PypFKQuFAulC5KbynZYtgwkQ4dROrVs2VxFdCokUjbtiKvvGIbbetWkW3bRG6/3ZbFdUCvXiIffSSyaZPrqIkRLKvYoec+7EM9pTDAUSxXfiwRmy9yThgkmC7nEzazdgZFV/aCzBUf6WyN30uv8N0jX5KXpI9SGPiJ/EReVfq7Ugk88IDI6NGiK98lgnx5VK4sMmqUSM+eJZJZtkykZUuRunVLBPn2aNJEpHZtkSVLfCTltRUwXgslfiPDQhGKzFotB0DF4Ajh+uuLnYFfFBUBF11UoldWrgzoenho+PrryGKTlwx89cjDcliOKtVQCgtlpIzMUnpRqRj8Lo4fX+wM/IKio8WLRVq0KE767bdF+vYVqVat2Cvwi1q1It/e6dMjSbMFu4KXFsA4G5T+q5QJ6D3hiJLKdoBbb81ElkDtUwsTlGhEpWCh5s1VRma7EDkYoOQUpsKdMv8/+SZgAiZCF8K50P3555kpyjffmLXbd98FsrMzkyVzGTw0H9ULarjK8LSpSN5VFVTDkbs7AvyGZQKaT2HtSyDlAJVPZwxvnVyEi5Y87Co/X99IV+/vAJi7z6wo7065R1T/IYDUHCSh+fxn/Ify4LnzVc3EAX8ALPwuPlEuSzouHSW5uS4TdFX1/y9mlW4UtbkJlypRGJ0JsBdWq6Y5VdHhaoa65HIsR2elfftQrCbi5F5NlTthtOJZvhw4dMgqJAQ/roN+mYc7lZwKrP2WguMqqmxg82bgnnv8Juco/i24BV8ruYWvilQdpsCWOdMWnGJ17RXfKnHumgk0bw58/300pwwMW9djPa5X8gJf30guqqgmYfj47W9FFiwQfqguUMpX2qAUJr75RuTAAZFKlaK5zJ8vMmVKmFnKy0pPKXmGlxbAOHepDHnNGq+xHcajCJ29IU6UvhRL0UcpTFB3q4QOztlnB6LjY1VuynOvVPIKXz1S9YNV8TbSfrgOuX6957ZkH/HVV0XmzhXV1i3maSkt5Z9KB5XCwL59Ijk5Is2bJ6X+8MMiy5cneQbjnCbT5D4lX/DaCu6/PyLd/lLlv9R54lx91y6vqVnEo2SDvdECQzEULymFgWnTgNGjbVK+9FIgaImLZkV5rp/RuGkANkVO603tiCVLgF69gAULIiqjv/lN2mjOGSjopWKMBbiY7udVZJGk8WIdxa3MlWRr1QpguQLEYixGDyU/8FWRjz8ekZSzN8bA67jPWczb/S8T+dWvUsa7G3fjfaUgkZsLdO6cIsUdKunpqKtLAeJW3Op7zfrUh8fDy/mcc0TWrk0U0PfrJzJtmofEkqNw2JgG1EqwlFWmiZcq+LnnRCZOTMFRQyU9eXkiW7akYHIetFt2yyGl+kp+4Ksizz1XZOVKEQpFY2jVSmTcuJjLx++gQSIrVqRMoJ7Uk+1KfBhBYONGkf37RapWTZMayzZzZhomZ8HDZFhwgnmvbwluUqlUCZg9+1QKfCPWqnXK7emKguMLL3QUlZp7TysFgSefBHTjlTNYCJ6dRUzkqoVa+rX3LwTw1SOrVxc5dCiiohBrf5wldO8uwumIZ1Co++c/O4reVbrqwH2aI95UTFzYmDVL5K67UnHFhXXuLLJoUZyH+8vZMlvuV6LwPBAkthHnrg0bIrMD6ivF478qa27XLt7HxTWHjZdc4kpU9SgexQIlP+CUY+BAFylwi4Lu4/QDLsdZbTf0kqZpCF4iMg7FglSuTQbvkTvXPIEba+6801XUzdiMm5T8QPeYIrlBpk2PrdXj0hb1nG5WCgq+KpKFsJPx3n67R9WItm09rSq0RmtVad7u6bl88glAAYBrcJd1t26uozFCd6UlSkHBd0XaFYT7Sf/yF7tQG3+Ki5o1swlM7T0Xc9FbyQu4QkV1Dk/gDjAPmx3roA6OKwWF0CqS91a1qstisuajtgNcxjSbh/hw3IIKVVafB8fpvPAC8NxzjtnJOFNpuFKQCK0i+crlmMUx+ES509gHspGtG/vi5kIO0ho5MsW6qoP4yNfdZ1xkdoEGaICvlIKEr+mHaQU2/6hWM3SoyOzZNgzJ3pQ3Ul/VByg9GKXkBlOninTt6iZGEi/Nr9xwQ0RckhRk5dwre+V8pdpKgSPIlhGfFqXr1M52BJq+8LEFPJZHK7TCHiUn4L7EqIUVJ+z2PFTPbN3aPjwu5A/4A/6tFDRC65FsbVzCy1f7SGnBpbhf/ELkZz9Ly5qOgeuvA5WcYPhwEe6E8o3LLzfaC7JzZ9qklskyaaQUCoJuHfHpzZkDqO2f1KBi07/+lZrHYShlehcrpQM3W3HuGBj+8Y+0U5EZmIExSmHANIwwEo6lyUEPZcP8tQTV8Gh8JkCMwihdgZ2SMsXu3VUtf2FKFveBFLvZ3qh+ZpScvvbdZh56RbJA552XYms1hZpRs11uC2/HvxVb0xqUoL5qimdul3Rqf9r2UfNndmiDNnZBvv0zUpHca09tAkv4FpVYpopOStwoa4VXXgGipu2sgr370XCOjTC8MRobVU7viaeOmZGKZBEqVLBYsqNtk2HDUpfQYyh3ijVTssIVVwAU9IcCvmH4vUwCd5MVKoWFjFXk0KHAvHlJt8EnGsCUIylV46RZtOpKyaCFqlCVxjdtKiEVGYmReFspTGSsInkTlBVzIcQgJwd49NGoI5yf9/AenlGKB6er69bF+4RwTaUfqhYquNOavTEI4XGqkma0Inl/xUq/at/UbFpNVTqfYVyU5kOMgVbKrrsuIOWwWKJWv9Syiy4QrMAK/EkpbGS0IjnToBmbwg90zkiRQwbwFJ7S/U3LTU7t2wM06Bc6uHNLpTgnjx5CDaVMIKMVyRu65RaVxZ6nQuAwbJxYPDF+KyO9sgg19JmGoFtskat6qaxyc5dmaK6UCfivyLTLNom38XXOJ2hda3OiZ8guqlR0e/orvB3ueCPhLooK8tF6aVnsL9iV4B+Ww19FckZdrpy7sql91LZXbMPq1e6i+eWWdSrIzQ9v+J9cvjzkod63VYB770sOCsXtb9H8q69EjwCI2PQyTSLNPy6O33ijvPhWTaMkx8W7TOCZZ0RqXloku8/anonsTB5DZIjMrPJPtYCkGoGZgucmwi3LXEh1OoL4+c8B6qwqqCOTm2suQ/3HcQeLeKDwexVwtQp9GsCbodC4eF8Kh+n33hvqPTJxfz1y795IW4v9pmp53Cjao4fIBRcYrkmTRLKy+IhTRfIfRruDb6ldwvPKVpIdSnlKYYPC7dFKBk2bRqTrjuR5PkvmublwsZtW9mjoPR3Kl49Y+Y/j41EdXo0exyVje0nBdvwn/CAOGrXJMCfn/DbSpnsCdu5UW28tEryCdvjrkQd1o2mdOiLffZe6Kb32msiYMSI//WkCH3dy0yxYWOjfX2T16lOpV5bKslNpnVJYGCyDZZJSAig0//xzESdvroSIzh1GV52tw3mUOM4RI0S4a4oVGjOgFhdsLpk09xFwa7OFJUcOROjtcIdAcuq2btpUpfnV5GdH+wPNlD5VChprZa30UlqlZAnusWCjj9t9bcnnwdNfjzx2TKS+bgfbscM+69dfF5kwwbISGelJtddLBShu9w4S7dtHdr8lp1lRKkodpfeVgkZv6S2vK9miUyeRefNsg30HeH5fU2TDxW87dUCukJctmzZ5HknlSdPbJmWql6QaKNI4IU8ysJNX2iSb0nse5uFepZTgvLtmTYDfzIDhr0ceP87j2ES449UKa9aI9O5tFZLg16aNCN86M2YkeHtyUP8pOzulNWs5R+kRpZFKQeCYHJMspQlKKUEd0YULRe5RM2x6Il/g8Nw4qPhCXfsHHii5r54TOC5uOgQ30PBQHJru8go2eFqq+rdDbcOmaIqPlfyC+zimKjnGn1Qa8re/OWZ3wuivR+o5jKZH8jvJ3hcPbs2uWTPeJ+U1LVBzFEvb8F7x17+KNG4sct11zlKYI3Okm9IPSl6RIzmyR4n7NB1j7FiROXPEvdXANDk4qXFLni5dIgJG9spk6xs8S3HbNstoqTyp/dGtWyoO6zDumjZ246yDbX0nqQ3YLkpewK1xVyjR2JFrUL+HGhLcChYATBV7Tidm+orqGjTcFgMVYrg12yNodcrNqYCLF0e0K3iwihfQNAqPR3QDDpTqK61R8gwaMa9Xz4i8PKcRjeivInmmEM9nJOK3NPHk0xIKOhE2J/9ph4Cq/JQ98zoVJk6MVKLf0wPboZ1aaNbEHICVSDljjpJv0MIULV9yV5fHg9ZYBn8Vyd2ssfP2+vWLGN1hb7RRCXR707Q+xfEST4MrKDgVm4ManqR0002RcVa6yj4V0/6KAuj2SoOUEk40SIpCnVkuwfnd6p6QLG+ob9+IojaXPXlzFLwXKzglcFs6/FUkv4N6vrABjZvyUER+qLycw2dZvMi90D4Rp1/c6c1r7r7j0mVQJynFZz0QA3XTWwOsVjLG8KOB/B6+qFRX6TOlUMADstgzuWubykUutCh8VeQGrcQBAwZgAg93UuxScdYAVTriYdNEvrao/npWLf/0lG/jN1T1Igeq1YXYodHjdHTDNHjgNDFz5kwTzkOwiSVqI438S5boh1CxevUqZGUNxIwZM4x7k6ofMj4P1SZ4UDX5hwwZYtx6erjJ/3FdvPgherrOcD3djnF2RifmE/X9TPen0ZOtJ8+bjKoDq6Lau9VwiVL1FdWNu+OsjkYMtk7V8JjHyy+/bPLYoW8hpj9ixAjjPqTKSQzPzs42bv7j4d7M4/uoAdgXtMLoZvmJ2TpaY5yl0U7Ag8h3uTDs52+t1TSD0n8/hifgbx75Y7iD0jKYJ1BakWdIQyityNKKPEOewBlyG6U9srQiz5AncIbcRmmPLK3IM+QJlN5G6RP4MT2B/wE3ZQQPwk+qQAAAAABJRU5ErkJggg==;clipPath=inset(46.51% 10.54% 12.79% 50.88%);imageBorder=default;" vertex="1" parent="1">
          <mxGeometry x="550.12" y="323.75999999999993" width="56.56" height="45" as="geometry" />
        </mxCell>
        <mxCell id="MDaIKtW8UcgU8Lhw4XhT-96" value="\(D\)" style="text;html=1;align=center;verticalAlign=middle;resizable=0;points=[];autosize=1;strokeColor=none;fillColor=none;fontSize=16;" vertex="1" parent="1">
          <mxGeometry x="553.3100000000001" y="331.2" width="50" height="30" as="geometry" />
        </mxCell>
        <mxCell id="MDaIKtW8UcgU8Lhw4XhT-108" style="edgeStyle=elbowEdgeStyle;rounded=0;orthogonalLoop=1;jettySize=auto;html=1;exitX=1;exitY=0.5;exitDx=0;exitDy=0;entryX=0;entryY=0.5;entryDx=0;entryDy=0;strokeWidth=2;" edge="1" parent="1" source="MDaIKtW8UcgU8Lhw4XhT-97" target="MDaIKtW8UcgU8Lhw4XhT-107">
          <mxGeometry relative="1" as="geometry" />
        </mxCell>
        <mxCell id="MDaIKtW8UcgU8Lhw4XhT-97" value="" style="shape=image;verticalLabelPosition=bottom;labelBackgroundColor=default;verticalAlign=top;aspect=fixed;imageAspect=0;image=data:image/png,iVBORw0KGgoAAAANSUhEUgAAAHIAAABWCAYAAAAT4MJdAAAAAXNSR0IArs4c6QAAAIRlWElmTU0AKgAAAAgABQESAAMAAAABAAEAAAEaAAUAAAABAAAASgEbAAUAAAABAAAAUgEoAAMAAAABAAIAAIdpAAQAAAABAAAAWgAAAAAAAACQAAAAAQAAAJAAAAABAAOgAQADAAAAAQABAACgAgAEAAAAAQAAAHKgAwAEAAAAAQAAAFYAAAAAVgf6RwAAAAlwSFlzAAAWJQAAFiUBSVIk8AAAEmZJREFUeAHtXQmUVMUVfWziiREMizFIUKKgogjIph4RgqCIAZEkGlFBhaMQInIEYWIcUAmIYIisKqAIBxAQgcEA8bgMSAiIRDQCCjiCsojssjoDMzfvVncP3T3/d/+1I5y578z0r6pXy/9V9X9VvVevyogCCv6W4vR9AmVP36KXljz+CZRWZPzTOI2vSyvyNK68+KKXVmT80ziNr8v7KXtRUZGcPHlSypQpIxUqVOCgSU6cOFHsZtoFBQUmi7POOktOKuWfyNfRlUjFChWlfJnyhp/xypcvL2XLljXpMd2Yu7CwUPhXrlw58xfLk7zkibmdloGFYRmZJ8vMeLyH+Dxj7nR5xsqQfN8xN/PifROx5xDLM1aG2H0m58l7Zvosn2Noxp7wwQcf4JprrsGDDz5o4ufl5aFx48a47bbbjPvYsWNo2LAhGjZoiD4FfaAVCGmnf431b4ugv9J93e4zaaxYscLEeeKJJ9CkSRO88cYbxj127FjjHjNmjHG/+eabxp2VlWXcK1euNPG7du1q3Fu3bjXhN998s3HrA0KDBg1MOY4cOWL8OnToYMq5ceNG4+7Zs6dxv/POO8b97LPPmjQmT55s3LNmzTLuQYMGGXdubq5xP/TQQ8b9xRdfoFGjRujUqZNx79mzR/NsjLPPboFPPzVehp/Pavfu3cajS5cuJs9Vq1YZN9Pms5s6dapxT58+HXyeTmEq2ymzF77n8bypwE3YVCL6KqxCWaU5SqHh6ac5t4r8VawIDB8eWlZMmO2P2f3618BrrwFsC9deG/F7773wsg6tIvORj4uUnlU6qWSHAhTg90p9lQJF795AlSrA2rUAe+Lx48Dhw4C+RXD++cBjjwWaHZO/7DKgf/9IVsmJM5wdWF8O+OGH5FD/7lAqcj/2m0pkj3MCVvRjSoFU5sGDwOWXA5MmASdOWGdfUACMHw9cdRVw9Kg1jwtfvi1/+Usg+pZMGXPZMuDii4G9e1OyuQ4MvCIP4zCuUvpIyQ1O4ATuVxqr5BnffQfUrevsiTITPlV2o/37PWd54ABQpw7w2WfOk/jwQ+DKKwHGDQqBV+QduAOvK3nBURzFtUrrlFyDr82rrwZ08OMKS5dG4tn13jSJ6VgOTMItFi0CbrwRKCx0G9OaP9CKnI3ZuEvJD7ZgC2oruQZHynPnuo5mInCkeMcdruP26AGMG+c6WnGEwYMBHaQHgsAqkt/Fy5Q4yPGL6ZhuXrOO0+FItE8fx+yWjH/8I6BTHadYuBD43e+cctvztWwJvP++fbjTkMAqsh/6YYpSEOD38galL5XSghO1pk3TsqVl4LCS70mdh6ZDbIQanRKmY08Z/u23QP36gE65fSGQityBHbhaKUhsx3ZcoJQWrMT169OyOWL4+GPo6kJaVp3LY/78tGyOGSZMAB55xDG7JWMga63Py/PypFKQuFAulC5KbynZYtgwkQ4dROrVs2VxFdCokUjbtiKvvGIbbetWkW3bRG6/3ZbFdUCvXiIffSSyaZPrqIkRLKvYoec+7EM9pTDAUSxXfiwRmy9yThgkmC7nEzazdgZFV/aCzBUf6WyN30uv8N0jX5KXpI9SGPiJ/EReVfq7Ugk88IDI6NGiK98lgnx5VK4sMmqUSM+eJZJZtkykZUuRunVLBPn2aNJEpHZtkSVLfCTltRUwXgslfiPDQhGKzFotB0DF4Ajh+uuLnYFfFBUBF11UoldWrgzoenho+PrryGKTlwx89cjDcliOKtVQCgtlpIzMUnpRqRj8Lo4fX+wM/IKio8WLRVq0KE767bdF+vYVqVat2Cvwi1q1It/e6dMjSbMFu4KXFsA4G5T+q5QJ6D3hiJLKdoBbb81ElkDtUwsTlGhEpWCh5s1VRma7EDkYoOQUpsKdMv8/+SZgAiZCF8K50P3555kpyjffmLXbd98FsrMzkyVzGTw0H9ULarjK8LSpSN5VFVTDkbs7AvyGZQKaT2HtSyDlAJVPZwxvnVyEi5Y87Co/X99IV+/vAJi7z6wo7065R1T/IYDUHCSh+fxn/Ify4LnzVc3EAX8ALPwuPlEuSzouHSW5uS4TdFX1/y9mlW4UtbkJlypRGJ0JsBdWq6Y5VdHhaoa65HIsR2elfftQrCbi5F5NlTthtOJZvhw4dMgqJAQ/roN+mYc7lZwKrP2WguMqqmxg82bgnnv8Juco/i24BV8ruYWvilQdpsCWOdMWnGJ17RXfKnHumgk0bw58/300pwwMW9djPa5X8gJf30guqqgmYfj47W9FFiwQfqguUMpX2qAUJr75RuTAAZFKlaK5zJ8vMmVKmFnKy0pPKXmGlxbAOHepDHnNGq+xHcajCJ29IU6UvhRL0UcpTFB3q4QOztlnB6LjY1VuynOvVPIKXz1S9YNV8TbSfrgOuX6957ZkH/HVV0XmzhXV1i3maSkt5Z9KB5XCwL59Ijk5Is2bJ6X+8MMiy5cneQbjnCbT5D4lX/DaCu6/PyLd/lLlv9R54lx91y6vqVnEo2SDvdECQzEULymFgWnTgNGjbVK+9FIgaImLZkV5rp/RuGkANkVO603tiCVLgF69gAULIiqjv/lN2mjOGSjopWKMBbiY7udVZJGk8WIdxa3MlWRr1QpguQLEYixGDyU/8FWRjz8ekZSzN8bA67jPWczb/S8T+dWvUsa7G3fjfaUgkZsLdO6cIsUdKunpqKtLAeJW3Op7zfrUh8fDy/mcc0TWrk0U0PfrJzJtmofEkqNw2JgG1EqwlFWmiZcq+LnnRCZOTMFRQyU9eXkiW7akYHIetFt2yyGl+kp+4Ksizz1XZOVKEQpFY2jVSmTcuJjLx++gQSIrVqRMoJ7Uk+1KfBhBYONGkf37RapWTZMayzZzZhomZ8HDZFhwgnmvbwluUqlUCZg9+1QKfCPWqnXK7emKguMLL3QUlZp7TysFgSefBHTjlTNYCJ6dRUzkqoVa+rX3LwTw1SOrVxc5dCiiohBrf5wldO8uwumIZ1Co++c/O4reVbrqwH2aI95UTFzYmDVL5K67UnHFhXXuLLJoUZyH+8vZMlvuV6LwPBAkthHnrg0bIrMD6ivF478qa27XLt7HxTWHjZdc4kpU9SgexQIlP+CUY+BAFylwi4Lu4/QDLsdZbTf0kqZpCF4iMg7FglSuTQbvkTvXPIEba+6801XUzdiMm5T8QPeYIrlBpk2PrdXj0hb1nG5WCgq+KpKFsJPx3n67R9WItm09rSq0RmtVad7u6bl88glAAYBrcJd1t26uozFCd6UlSkHBd0XaFYT7Sf/yF7tQG3+Ki5o1swlM7T0Xc9FbyQu4QkV1Dk/gDjAPmx3roA6OKwWF0CqS91a1qstisuajtgNcxjSbh/hw3IIKVVafB8fpvPAC8NxzjtnJOFNpuFKQCK0i+crlmMUx+ES509gHspGtG/vi5kIO0ho5MsW6qoP4yNfdZ1xkdoEGaICvlIKEr+mHaQU2/6hWM3SoyOzZNgzJ3pQ3Ul/VByg9GKXkBlOninTt6iZGEi/Nr9xwQ0RckhRk5dwre+V8pdpKgSPIlhGfFqXr1M52BJq+8LEFPJZHK7TCHiUn4L7EqIUVJ+z2PFTPbN3aPjwu5A/4A/6tFDRC65FsbVzCy1f7SGnBpbhf/ELkZz9Ly5qOgeuvA5WcYPhwEe6E8o3LLzfaC7JzZ9qklskyaaQUCoJuHfHpzZkDqO2f1KBi07/+lZrHYShlehcrpQM3W3HuGBj+8Y+0U5EZmIExSmHANIwwEo6lyUEPZcP8tQTV8Gh8JkCMwihdgZ2SMsXu3VUtf2FKFveBFLvZ3qh+ZpScvvbdZh56RbJA552XYms1hZpRs11uC2/HvxVb0xqUoL5qimdul3Rqf9r2UfNndmiDNnZBvv0zUpHca09tAkv4FpVYpopOStwoa4VXXgGipu2sgr370XCOjTC8MRobVU7viaeOmZGKZBEqVLBYsqNtk2HDUpfQYyh3ijVTssIVVwAU9IcCvmH4vUwCd5MVKoWFjFXk0KHAvHlJt8EnGsCUIylV46RZtOpKyaCFqlCVxjdtKiEVGYmReFspTGSsInkTlBVzIcQgJwd49NGoI5yf9/AenlGKB6er69bF+4RwTaUfqhYquNOavTEI4XGqkma0Inl/xUq/at/UbFpNVTqfYVyU5kOMgVbKrrsuIOWwWKJWv9Syiy4QrMAK/EkpbGS0IjnToBmbwg90zkiRQwbwFJ7S/U3LTU7t2wM06Bc6uHNLpTgnjx5CDaVMIKMVyRu65RaVxZ6nQuAwbJxYPDF+KyO9sgg19JmGoFtskat6qaxyc5dmaK6UCfivyLTLNom38XXOJ2hda3OiZ8guqlR0e/orvB3ueCPhLooK8tF6aVnsL9iV4B+Ww19FckZdrpy7sql91LZXbMPq1e6i+eWWdSrIzQ9v+J9cvjzkod63VYB770sOCsXtb9H8q69EjwCI2PQyTSLNPy6O33ijvPhWTaMkx8W7TOCZZ0RqXloku8/anonsTB5DZIjMrPJPtYCkGoGZgucmwi3LXEh1OoL4+c8B6qwqqCOTm2suQ/3HcQeLeKDwexVwtQp9GsCbodC4eF8Kh+n33hvqPTJxfz1y795IW4v9pmp53Cjao4fIBRcYrkmTRLKy+IhTRfIfRruDb6ldwvPKVpIdSnlKYYPC7dFKBk2bRqTrjuR5PkvmublwsZtW9mjoPR3Kl49Y+Y/j41EdXo0exyVje0nBdvwn/CAOGrXJMCfn/DbSpnsCdu5UW28tEryCdvjrkQd1o2mdOiLffZe6Kb32msiYMSI//WkCH3dy0yxYWOjfX2T16lOpV5bKslNpnVJYGCyDZZJSAig0//xzESdvroSIzh1GV52tw3mUOM4RI0S4a4oVGjOgFhdsLpk09xFwa7OFJUcOROjtcIdAcuq2btpUpfnV5GdH+wPNlD5VChprZa30UlqlZAnusWCjj9t9bcnnwdNfjzx2TKS+bgfbscM+69dfF5kwwbISGelJtddLBShu9w4S7dtHdr8lp1lRKkodpfeVgkZv6S2vK9miUyeRefNsg30HeH5fU2TDxW87dUCukJctmzZ5HknlSdPbJmWql6QaKNI4IU8ysJNX2iSb0nse5uFepZTgvLtmTYDfzIDhr0ceP87j2ES449UKa9aI9O5tFZLg16aNCN86M2YkeHtyUP8pOzulNWs5R+kRpZFKQeCYHJMspQlKKUEd0YULRe5RM2x6Il/g8Nw4qPhCXfsHHii5r54TOC5uOgQ30PBQHJru8go2eFqq+rdDbcOmaIqPlfyC+zimKjnGn1Qa8re/OWZ3wuivR+o5jKZH8jvJ3hcPbs2uWTPeJ+U1LVBzFEvb8F7x17+KNG4sct11zlKYI3Okm9IPSl6RIzmyR4n7NB1j7FiROXPEvdXANDk4qXFLni5dIgJG9spk6xs8S3HbNstoqTyp/dGtWyoO6zDumjZ246yDbX0nqQ3YLkpewK1xVyjR2JFrUL+HGhLcChYATBV7Tidm+orqGjTcFgMVYrg12yNodcrNqYCLF0e0K3iwihfQNAqPR3QDDpTqK61R8gwaMa9Xz4i8PKcRjeivInmmEM9nJOK3NPHk0xIKOhE2J/9ph4Cq/JQ98zoVJk6MVKLf0wPboZ1aaNbEHICVSDljjpJv0MIULV9yV5fHg9ZYBn8Vyd2ssfP2+vWLGN1hb7RRCXR707Q+xfEST4MrKDgVm4ManqR0002RcVa6yj4V0/6KAuj2SoOUEk40SIpCnVkuwfnd6p6QLG+ob9+IojaXPXlzFLwXKzglcFs6/FUkv4N6vrABjZvyUER+qLycw2dZvMi90D4Rp1/c6c1r7r7j0mVQJynFZz0QA3XTWwOsVjLG8KOB/B6+qFRX6TOlUMADstgzuWubykUutCh8VeQGrcQBAwZgAg93UuxScdYAVTriYdNEvrao/npWLf/0lG/jN1T1Igeq1YXYodHjdHTDNHjgNDFz5kwTzkOwiSVqI438S5boh1CxevUqZGUNxIwZM4x7k6ofMj4P1SZ4UDX5hwwZYtx6erjJ/3FdvPgherrOcD3djnF2RifmE/X9TPen0ZOtJ8+bjKoDq6Lau9VwiVL1FdWNu+OsjkYMtk7V8JjHyy+/bPLYoW8hpj9ixAjjPqTKSQzPzs42bv7j4d7M4/uoAdgXtMLoZvmJ2TpaY5yl0U7Ag8h3uTDs52+t1TSD0n8/hifgbx75Y7iD0jKYJ1BakWdIQyityNKKPEOewBlyG6U9srQiz5AncIbcRmmPLK3IM+QJlN5G6RP4MT2B/wE3ZQQPwk+qQAAAAABJRU5ErkJggg==;clipPath=inset(5.81% 10.53% 53.49% 12.28%);imageBorder=default;" vertex="1" parent="1">
          <mxGeometry x="690" y="191.19" width="113.16" height="45" as="geometry" />
        </mxCell>
        <mxCell id="MDaIKtW8UcgU8Lhw4XhT-109" style="edgeStyle=elbowEdgeStyle;rounded=0;orthogonalLoop=1;jettySize=auto;html=1;exitX=1;exitY=0.5;exitDx=0;exitDy=0;entryX=0;entryY=0.5;entryDx=0;entryDy=0;strokeWidth=2;" edge="1" parent="1" source="MDaIKtW8UcgU8Lhw4XhT-98" target="MDaIKtW8UcgU8Lhw4XhT-107">
          <mxGeometry relative="1" as="geometry">
            <mxPoint x="900.02" y="260.0000000000001" as="targetPoint" />
          </mxGeometry>
        </mxCell>
        <mxCell id="MDaIKtW8UcgU8Lhw4XhT-98" value="" style="shape=image;verticalLabelPosition=bottom;labelBackgroundColor=default;verticalAlign=top;aspect=fixed;imageAspect=0;image=data:image/png,iVBORw0KGgoAAAANSUhEUgAAAHIAAABWCAYAAAAT4MJdAAAAAXNSR0IArs4c6QAAAIRlWElmTU0AKgAAAAgABQESAAMAAAABAAEAAAEaAAUAAAABAAAASgEbAAUAAAABAAAAUgEoAAMAAAABAAIAAIdpAAQAAAABAAAAWgAAAAAAAACQAAAAAQAAAJAAAAABAAOgAQADAAAAAQABAACgAgAEAAAAAQAAAHKgAwAEAAAAAQAAAFYAAAAAVgf6RwAAAAlwSFlzAAAWJQAAFiUBSVIk8AAAEmZJREFUeAHtXQmUVMUVfWziiREMizFIUKKgogjIph4RgqCIAZEkGlFBhaMQInIEYWIcUAmIYIisKqAIBxAQgcEA8bgMSAiIRDQCCjiCsojssjoDMzfvVncP3T3/d/+1I5y578z0r6pXy/9V9X9VvVevyogCCv6W4vR9AmVP36KXljz+CZRWZPzTOI2vSyvyNK68+KKXVmT80ziNr8v7KXtRUZGcPHlSypQpIxUqVOCgSU6cOFHsZtoFBQUmi7POOktOKuWfyNfRlUjFChWlfJnyhp/xypcvL2XLljXpMd2Yu7CwUPhXrlw58xfLk7zkibmdloGFYRmZJ8vMeLyH+Dxj7nR5xsqQfN8xN/PifROx5xDLM1aG2H0m58l7Zvosn2Noxp7wwQcf4JprrsGDDz5o4ufl5aFx48a47bbbjPvYsWNo2LAhGjZoiD4FfaAVCGmnf431b4ugv9J93e4zaaxYscLEeeKJJ9CkSRO88cYbxj127FjjHjNmjHG/+eabxp2VlWXcK1euNPG7du1q3Fu3bjXhN998s3HrA0KDBg1MOY4cOWL8OnToYMq5ceNG4+7Zs6dxv/POO8b97LPPmjQmT55s3LNmzTLuQYMGGXdubq5xP/TQQ8b9xRdfoFGjRujUqZNx79mzR/NsjLPPboFPPzVehp/Pavfu3cajS5cuJs9Vq1YZN9Pms5s6dapxT58+HXyeTmEq2ymzF77n8bypwE3YVCL6KqxCWaU5SqHh6ac5t4r8VawIDB8eWlZMmO2P2f3618BrrwFsC9deG/F7773wsg6tIvORj4uUnlU6qWSHAhTg90p9lQJF795AlSrA2rUAe+Lx48Dhw4C+RXD++cBjjwWaHZO/7DKgf/9IVsmJM5wdWF8O+OGH5FD/7lAqcj/2m0pkj3MCVvRjSoFU5sGDwOWXA5MmASdOWGdfUACMHw9cdRVw9Kg1jwtfvi1/+Usg+pZMGXPZMuDii4G9e1OyuQ4MvCIP4zCuUvpIyQ1O4ATuVxqr5BnffQfUrevsiTITPlV2o/37PWd54ABQpw7w2WfOk/jwQ+DKKwHGDQqBV+QduAOvK3nBURzFtUrrlFyDr82rrwZ08OMKS5dG4tn13jSJ6VgOTMItFi0CbrwRKCx0G9OaP9CKnI3ZuEvJD7ZgC2oruQZHynPnuo5mInCkeMcdruP26AGMG+c6WnGEwYMBHaQHgsAqkt/Fy5Q4yPGL6ZhuXrOO0+FItE8fx+yWjH/8I6BTHadYuBD43e+cctvztWwJvP++fbjTkMAqsh/6YYpSEOD38galL5XSghO1pk3TsqVl4LCS70mdh6ZDbIQanRKmY08Z/u23QP36gE65fSGQityBHbhaKUhsx3ZcoJQWrMT169OyOWL4+GPo6kJaVp3LY/78tGyOGSZMAB55xDG7JWMga63Py/PypFKQuFAulC5KbynZYtgwkQ4dROrVs2VxFdCokUjbtiKvvGIbbetWkW3bRG6/3ZbFdUCvXiIffSSyaZPrqIkRLKvYoec+7EM9pTDAUSxXfiwRmy9yThgkmC7nEzazdgZFV/aCzBUf6WyN30uv8N0jX5KXpI9SGPiJ/EReVfq7Ugk88IDI6NGiK98lgnx5VK4sMmqUSM+eJZJZtkykZUuRunVLBPn2aNJEpHZtkSVLfCTltRUwXgslfiPDQhGKzFotB0DF4Ajh+uuLnYFfFBUBF11UoldWrgzoenho+PrryGKTlwx89cjDcliOKtVQCgtlpIzMUnpRqRj8Lo4fX+wM/IKio8WLRVq0KE767bdF+vYVqVat2Cvwi1q1It/e6dMjSbMFu4KXFsA4G5T+q5QJ6D3hiJLKdoBbb81ElkDtUwsTlGhEpWCh5s1VRma7EDkYoOQUpsKdMv8/+SZgAiZCF8K50P3555kpyjffmLXbd98FsrMzkyVzGTw0H9ULarjK8LSpSN5VFVTDkbs7AvyGZQKaT2HtSyDlAJVPZwxvnVyEi5Y87Co/X99IV+/vAJi7z6wo7065R1T/IYDUHCSh+fxn/Ify4LnzVc3EAX8ALPwuPlEuSzouHSW5uS4TdFX1/y9mlW4UtbkJlypRGJ0JsBdWq6Y5VdHhaoa65HIsR2elfftQrCbi5F5NlTthtOJZvhw4dMgqJAQ/roN+mYc7lZwKrP2WguMqqmxg82bgnnv8Juco/i24BV8ruYWvilQdpsCWOdMWnGJ17RXfKnHumgk0bw58/300pwwMW9djPa5X8gJf30guqqgmYfj47W9FFiwQfqguUMpX2qAUJr75RuTAAZFKlaK5zJ8vMmVKmFnKy0pPKXmGlxbAOHepDHnNGq+xHcajCJ29IU6UvhRL0UcpTFB3q4QOztlnB6LjY1VuynOvVPIKXz1S9YNV8TbSfrgOuX6957ZkH/HVV0XmzhXV1i3maSkt5Z9KB5XCwL59Ijk5Is2bJ6X+8MMiy5cneQbjnCbT5D4lX/DaCu6/PyLd/lLlv9R54lx91y6vqVnEo2SDvdECQzEULymFgWnTgNGjbVK+9FIgaImLZkV5rp/RuGkANkVO603tiCVLgF69gAULIiqjv/lN2mjOGSjopWKMBbiY7udVZJGk8WIdxa3MlWRr1QpguQLEYixGDyU/8FWRjz8ekZSzN8bA67jPWczb/S8T+dWvUsa7G3fjfaUgkZsLdO6cIsUdKunpqKtLAeJW3Op7zfrUh8fDy/mcc0TWrk0U0PfrJzJtmofEkqNw2JgG1EqwlFWmiZcq+LnnRCZOTMFRQyU9eXkiW7akYHIetFt2yyGl+kp+4Ksizz1XZOVKEQpFY2jVSmTcuJjLx++gQSIrVqRMoJ7Uk+1KfBhBYONGkf37RapWTZMayzZzZhomZ8HDZFhwgnmvbwluUqlUCZg9+1QKfCPWqnXK7emKguMLL3QUlZp7TysFgSefBHTjlTNYCJ6dRUzkqoVa+rX3LwTw1SOrVxc5dCiiohBrf5wldO8uwumIZ1Co++c/O4reVbrqwH2aI95UTFzYmDVL5K67UnHFhXXuLLJoUZyH+8vZMlvuV6LwPBAkthHnrg0bIrMD6ivF478qa27XLt7HxTWHjZdc4kpU9SgexQIlP+CUY+BAFylwi4Lu4/QDLsdZbTf0kqZpCF4iMg7FglSuTQbvkTvXPIEba+6801XUzdiMm5T8QPeYIrlBpk2PrdXj0hb1nG5WCgq+KpKFsJPx3n67R9WItm09rSq0RmtVad7u6bl88glAAYBrcJd1t26uozFCd6UlSkHBd0XaFYT7Sf/yF7tQG3+Ki5o1swlM7T0Xc9FbyQu4QkV1Dk/gDjAPmx3roA6OKwWF0CqS91a1qstisuajtgNcxjSbh/hw3IIKVVafB8fpvPAC8NxzjtnJOFNpuFKQCK0i+crlmMUx+ES509gHspGtG/vi5kIO0ho5MsW6qoP4yNfdZ1xkdoEGaICvlIKEr+mHaQU2/6hWM3SoyOzZNgzJ3pQ3Ul/VByg9GKXkBlOninTt6iZGEi/Nr9xwQ0RckhRk5dwre+V8pdpKgSPIlhGfFqXr1M52BJq+8LEFPJZHK7TCHiUn4L7EqIUVJ+z2PFTPbN3aPjwu5A/4A/6tFDRC65FsbVzCy1f7SGnBpbhf/ELkZz9Ly5qOgeuvA5WcYPhwEe6E8o3LLzfaC7JzZ9qklskyaaQUCoJuHfHpzZkDqO2f1KBi07/+lZrHYShlehcrpQM3W3HuGBj+8Y+0U5EZmIExSmHANIwwEo6lyUEPZcP8tQTV8Gh8JkCMwihdgZ2SMsXu3VUtf2FKFveBFLvZ3qh+ZpScvvbdZh56RbJA552XYms1hZpRs11uC2/HvxVb0xqUoL5qimdul3Rqf9r2UfNndmiDNnZBvv0zUpHca09tAkv4FpVYpopOStwoa4VXXgGipu2sgr370XCOjTC8MRobVU7viaeOmZGKZBEqVLBYsqNtk2HDUpfQYyh3ijVTssIVVwAU9IcCvmH4vUwCd5MVKoWFjFXk0KHAvHlJt8EnGsCUIylV46RZtOpKyaCFqlCVxjdtKiEVGYmReFspTGSsInkTlBVzIcQgJwd49NGoI5yf9/AenlGKB6er69bF+4RwTaUfqhYquNOavTEI4XGqkma0Inl/xUq/at/UbFpNVTqfYVyU5kOMgVbKrrsuIOWwWKJWv9Syiy4QrMAK/EkpbGS0IjnToBmbwg90zkiRQwbwFJ7S/U3LTU7t2wM06Bc6uHNLpTgnjx5CDaVMIKMVyRu65RaVxZ6nQuAwbJxYPDF+KyO9sgg19JmGoFtskat6qaxyc5dmaK6UCfivyLTLNom38XXOJ2hda3OiZ8guqlR0e/orvB3ueCPhLooK8tF6aVnsL9iV4B+Ww19FckZdrpy7sql91LZXbMPq1e6i+eWWdSrIzQ9v+J9cvjzkod63VYB770sOCsXtb9H8q69EjwCI2PQyTSLNPy6O33ijvPhWTaMkx8W7TOCZZ0RqXloku8/anonsTB5DZIjMrPJPtYCkGoGZgucmwi3LXEh1OoL4+c8B6qwqqCOTm2suQ/3HcQeLeKDwexVwtQp9GsCbodC4eF8Kh+n33hvqPTJxfz1y795IW4v9pmp53Cjao4fIBRcYrkmTRLKy+IhTRfIfRruDb6ldwvPKVpIdSnlKYYPC7dFKBk2bRqTrjuR5PkvmublwsZtW9mjoPR3Kl49Y+Y/j41EdXo0exyVje0nBdvwn/CAOGrXJMCfn/DbSpnsCdu5UW28tEryCdvjrkQd1o2mdOiLffZe6Kb32msiYMSI//WkCH3dy0yxYWOjfX2T16lOpV5bKslNpnVJYGCyDZZJSAig0//xzESdvroSIzh1GV52tw3mUOM4RI0S4a4oVGjOgFhdsLpk09xFwa7OFJUcOROjtcIdAcuq2btpUpfnV5GdH+wPNlD5VChprZa30UlqlZAnusWCjj9t9bcnnwdNfjzx2TKS+bgfbscM+69dfF5kwwbISGelJtddLBShu9w4S7dtHdr8lp1lRKkodpfeVgkZv6S2vK9miUyeRefNsg30HeH5fU2TDxW87dUCukJctmzZ5HknlSdPbJmWql6QaKNI4IU8ysJNX2iSb0nse5uFepZTgvLtmTYDfzIDhr0ceP87j2ES449UKa9aI9O5tFZLg16aNCN86M2YkeHtyUP8pOzulNWs5R+kRpZFKQeCYHJMspQlKKUEd0YULRe5RM2x6Il/g8Nw4qPhCXfsHHii5r54TOC5uOgQ30PBQHJru8go2eFqq+rdDbcOmaIqPlfyC+zimKjnGn1Qa8re/OWZ3wuivR+o5jKZH8jvJ3hcPbs2uWTPeJ+U1LVBzFEvb8F7x17+KNG4sct11zlKYI3Okm9IPSl6RIzmyR4n7NB1j7FiROXPEvdXANDk4qXFLni5dIgJG9spk6xs8S3HbNstoqTyp/dGtWyoO6zDumjZ246yDbX0nqQ3YLkpewK1xVyjR2JFrUL+HGhLcChYATBV7Tidm+orqGjTcFgMVYrg12yNodcrNqYCLF0e0K3iwihfQNAqPR3QDDpTqK61R8gwaMa9Xz4i8PKcRjeivInmmEM9nJOK3NPHk0xIKOhE2J/9ph4Cq/JQ98zoVJk6MVKLf0wPboZ1aaNbEHICVSDljjpJv0MIULV9yV5fHg9ZYBn8Vyd2ssfP2+vWLGN1hb7RRCXR707Q+xfEST4MrKDgVm4ManqR0002RcVa6yj4V0/6KAuj2SoOUEk40SIpCnVkuwfnd6p6QLG+ob9+IojaXPXlzFLwXKzglcFs6/FUkv4N6vrABjZvyUER+qLycw2dZvMi90D4Rp1/c6c1r7r7j0mVQJynFZz0QA3XTWwOsVjLG8KOB/B6+qFRX6TOlUMADstgzuWubykUutCh8VeQGrcQBAwZgAg93UuxScdYAVTriYdNEvrao/npWLf/0lG/jN1T1Igeq1YXYodHjdHTDNHjgNDFz5kwTzkOwiSVqI438S5boh1CxevUqZGUNxIwZM4x7k6ofMj4P1SZ4UDX5hwwZYtx6erjJ/3FdvPgherrOcD3djnF2RifmE/X9TPen0ZOtJ8+bjKoDq6Lau9VwiVL1FdWNu+OsjkYMtk7V8JjHyy+/bPLYoW8hpj9ixAjjPqTKSQzPzs42bv7j4d7M4/uoAdgXtMLoZvmJ2TpaY5yl0U7Ag8h3uTDs52+t1TSD0n8/hifgbx75Y7iD0jKYJ1BakWdIQyityNKKPEOewBlyG6U9srQiz5AncIbcRmmPLK3IM+QJlN5G6RP4MT2B/wE3ZQQPwk+qQAAAAABJRU5ErkJggg==;clipPath=inset(46.51% 10.53% 12.79% 12.28%);imageBorder=default;" vertex="1" parent="1">
          <mxGeometry x="690.02" y="290" width="113.14" height="45" as="geometry" />
        </mxCell>
        <mxCell id="MDaIKtW8UcgU8Lhw4XhT-107" value="" style="shape=image;verticalLabelPosition=bottom;labelBackgroundColor=default;verticalAlign=top;aspect=fixed;imageAspect=0;image=data:image/png,iVBORw0KGgoAAAANSUhEUgAAAHIAAABWCAYAAAAT4MJdAAAAAXNSR0IArs4c6QAAAIRlWElmTU0AKgAAAAgABQESAAMAAAABAAEAAAEaAAUAAAABAAAASgEbAAUAAAABAAAAUgEoAAMAAAABAAIAAIdpAAQAAAABAAAAWgAAAAAAAACQAAAAAQAAAJAAAAABAAOgAQADAAAAAQABAACgAgAEAAAAAQAAAHKgAwAEAAAAAQAAAFYAAAAAVgf6RwAAAAlwSFlzAAAWJQAAFiUBSVIk8AAAEmZJREFUeAHtXQmUVMUVfWziiREMizFIUKKgogjIph4RgqCIAZEkGlFBhaMQInIEYWIcUAmIYIisKqAIBxAQgcEA8bgMSAiIRDQCCjiCsojssjoDMzfvVncP3T3/d/+1I5y578z0r6pXy/9V9X9VvVevyogCCv6W4vR9AmVP36KXljz+CZRWZPzTOI2vSyvyNK68+KKXVmT80ziNr8v7KXtRUZGcPHlSypQpIxUqVOCgSU6cOFHsZtoFBQUmi7POOktOKuWfyNfRlUjFChWlfJnyhp/xypcvL2XLljXpMd2Yu7CwUPhXrlw58xfLk7zkibmdloGFYRmZJ8vMeLyH+Dxj7nR5xsqQfN8xN/PifROx5xDLM1aG2H0m58l7Zvosn2Noxp7wwQcf4JprrsGDDz5o4ufl5aFx48a47bbbjPvYsWNo2LAhGjZoiD4FfaAVCGmnf431b4ugv9J93e4zaaxYscLEeeKJJ9CkSRO88cYbxj127FjjHjNmjHG/+eabxp2VlWXcK1euNPG7du1q3Fu3bjXhN998s3HrA0KDBg1MOY4cOWL8OnToYMq5ceNG4+7Zs6dxv/POO8b97LPPmjQmT55s3LNmzTLuQYMGGXdubq5xP/TQQ8b9xRdfoFGjRujUqZNx79mzR/NsjLPPboFPPzVehp/Pavfu3cajS5cuJs9Vq1YZN9Pms5s6dapxT58+HXyeTmEq2ymzF77n8bypwE3YVCL6KqxCWaU5SqHh6ac5t4r8VawIDB8eWlZMmO2P2f3618BrrwFsC9deG/F7773wsg6tIvORj4uUnlU6qWSHAhTg90p9lQJF795AlSrA2rUAe+Lx48Dhw4C+RXD++cBjjwWaHZO/7DKgf/9IVsmJM5wdWF8O+OGH5FD/7lAqcj/2m0pkj3MCVvRjSoFU5sGDwOWXA5MmASdOWGdfUACMHw9cdRVw9Kg1jwtfvi1/+Usg+pZMGXPZMuDii4G9e1OyuQ4MvCIP4zCuUvpIyQ1O4ATuVxqr5BnffQfUrevsiTITPlV2o/37PWd54ABQpw7w2WfOk/jwQ+DKKwHGDQqBV+QduAOvK3nBURzFtUrrlFyDr82rrwZ08OMKS5dG4tn13jSJ6VgOTMItFi0CbrwRKCx0G9OaP9CKnI3ZuEvJD7ZgC2oruQZHynPnuo5mInCkeMcdruP26AGMG+c6WnGEwYMBHaQHgsAqkt/Fy5Q4yPGL6ZhuXrOO0+FItE8fx+yWjH/8I6BTHadYuBD43e+cctvztWwJvP++fbjTkMAqsh/6YYpSEOD38galL5XSghO1pk3TsqVl4LCS70mdh6ZDbIQanRKmY08Z/u23QP36gE65fSGQityBHbhaKUhsx3ZcoJQWrMT169OyOWL4+GPo6kJaVp3LY/78tGyOGSZMAB55xDG7JWMga63Py/PypFKQuFAulC5KbynZYtgwkQ4dROrVs2VxFdCokUjbtiKvvGIbbetWkW3bRG6/3ZbFdUCvXiIffSSyaZPrqIkRLKvYoec+7EM9pTDAUSxXfiwRmy9yThgkmC7nEzazdgZFV/aCzBUf6WyN30uv8N0jX5KXpI9SGPiJ/EReVfq7Ugk88IDI6NGiK98lgnx5VK4sMmqUSM+eJZJZtkykZUuRunVLBPn2aNJEpHZtkSVLfCTltRUwXgslfiPDQhGKzFotB0DF4Ajh+uuLnYFfFBUBF11UoldWrgzoenho+PrryGKTlwx89cjDcliOKtVQCgtlpIzMUnpRqRj8Lo4fX+wM/IKio8WLRVq0KE767bdF+vYVqVat2Cvwi1q1It/e6dMjSbMFu4KXFsA4G5T+q5QJ6D3hiJLKdoBbb81ElkDtUwsTlGhEpWCh5s1VRma7EDkYoOQUpsKdMv8/+SZgAiZCF8K50P3555kpyjffmLXbd98FsrMzkyVzGTw0H9ULarjK8LSpSN5VFVTDkbs7AvyGZQKaT2HtSyDlAJVPZwxvnVyEi5Y87Co/X99IV+/vAJi7z6wo7065R1T/IYDUHCSh+fxn/Ify4LnzVc3EAX8ALPwuPlEuSzouHSW5uS4TdFX1/y9mlW4UtbkJlypRGJ0JsBdWq6Y5VdHhaoa65HIsR2elfftQrCbi5F5NlTthtOJZvhw4dMgqJAQ/roN+mYc7lZwKrP2WguMqqmxg82bgnnv8Juco/i24BV8ruYWvilQdpsCWOdMWnGJ17RXfKnHumgk0bw58/300pwwMW9djPa5X8gJf30guqqgmYfj47W9FFiwQfqguUMpX2qAUJr75RuTAAZFKlaK5zJ8vMmVKmFnKy0pPKXmGlxbAOHepDHnNGq+xHcajCJ29IU6UvhRL0UcpTFB3q4QOztlnB6LjY1VuynOvVPIKXz1S9YNV8TbSfrgOuX6957ZkH/HVV0XmzhXV1i3maSkt5Z9KB5XCwL59Ijk5Is2bJ6X+8MMiy5cneQbjnCbT5D4lX/DaCu6/PyLd/lLlv9R54lx91y6vqVnEo2SDvdECQzEULymFgWnTgNGjbVK+9FIgaImLZkV5rp/RuGkANkVO603tiCVLgF69gAULIiqjv/lN2mjOGSjopWKMBbiY7udVZJGk8WIdxa3MlWRr1QpguQLEYixGDyU/8FWRjz8ekZSzN8bA67jPWczb/S8T+dWvUsa7G3fjfaUgkZsLdO6cIsUdKunpqKtLAeJW3Op7zfrUh8fDy/mcc0TWrk0U0PfrJzJtmofEkqNw2JgG1EqwlFWmiZcq+LnnRCZOTMFRQyU9eXkiW7akYHIetFt2yyGl+kp+4Ksizz1XZOVKEQpFY2jVSmTcuJjLx++gQSIrVqRMoJ7Uk+1KfBhBYONGkf37RapWTZMayzZzZhomZ8HDZFhwgnmvbwluUqlUCZg9+1QKfCPWqnXK7emKguMLL3QUlZp7TysFgSefBHTjlTNYCJ6dRUzkqoVa+rX3LwTw1SOrVxc5dCiiohBrf5wldO8uwumIZ1Co++c/O4reVbrqwH2aI95UTFzYmDVL5K67UnHFhXXuLLJoUZyH+8vZMlvuV6LwPBAkthHnrg0bIrMD6ivF478qa27XLt7HxTWHjZdc4kpU9SgexQIlP+CUY+BAFylwi4Lu4/QDLsdZbTf0kqZpCF4iMg7FglSuTQbvkTvXPIEba+6801XUzdiMm5T8QPeYIrlBpk2PrdXj0hb1nG5WCgq+KpKFsJPx3n67R9WItm09rSq0RmtVad7u6bl88glAAYBrcJd1t26uozFCd6UlSkHBd0XaFYT7Sf/yF7tQG3+Ki5o1swlM7T0Xc9FbyQu4QkV1Dk/gDjAPmx3roA6OKwWF0CqS91a1qstisuajtgNcxjSbh/hw3IIKVVafB8fpvPAC8NxzjtnJOFNpuFKQCK0i+crlmMUx+ES509gHspGtG/vi5kIO0ho5MsW6qoP4yNfdZ1xkdoEGaICvlIKEr+mHaQU2/6hWM3SoyOzZNgzJ3pQ3Ul/VByg9GKXkBlOninTt6iZGEi/Nr9xwQ0RckhRk5dwre+V8pdpKgSPIlhGfFqXr1M52BJq+8LEFPJZHK7TCHiUn4L7EqIUVJ+z2PFTPbN3aPjwu5A/4A/6tFDRC65FsbVzCy1f7SGnBpbhf/ELkZz9Ly5qOgeuvA5WcYPhwEe6E8o3LLzfaC7JzZ9qklskyaaQUCoJuHfHpzZkDqO2f1KBi07/+lZrHYShlehcrpQM3W3HuGBj+8Y+0U5EZmIExSmHANIwwEo6lyUEPZcP8tQTV8Gh8JkCMwihdgZ2SMsXu3VUtf2FKFveBFLvZ3qh+ZpScvvbdZh56RbJA552XYms1hZpRs11uC2/HvxVb0xqUoL5qimdul3Rqf9r2UfNndmiDNnZBvv0zUpHca09tAkv4FpVYpopOStwoa4VXXgGipu2sgr370XCOjTC8MRobVU7viaeOmZGKZBEqVLBYsqNtk2HDUpfQYyh3ijVTssIVVwAU9IcCvmH4vUwCd5MVKoWFjFXk0KHAvHlJt8EnGsCUIylV46RZtOpKyaCFqlCVxjdtKiEVGYmReFspTGSsInkTlBVzIcQgJwd49NGoI5yf9/AenlGKB6er69bF+4RwTaUfqhYquNOavTEI4XGqkma0Inl/xUq/at/UbFpNVTqfYVyU5kOMgVbKrrsuIOWwWKJWv9Syiy4QrMAK/EkpbGS0IjnToBmbwg90zkiRQwbwFJ7S/U3LTU7t2wM06Bc6uHNLpTgnjx5CDaVMIKMVyRu65RaVxZ6nQuAwbJxYPDF+KyO9sgg19JmGoFtskat6qaxyc5dmaK6UCfivyLTLNom38XXOJ2hda3OiZ8guqlR0e/orvB3ueCPhLooK8tF6aVnsL9iV4B+Ww19FckZdrpy7sql91LZXbMPq1e6i+eWWdSrIzQ9v+J9cvjzkod63VYB770sOCsXtb9H8q69EjwCI2PQyTSLNPy6O33ijvPhWTaMkx8W7TOCZZ0RqXloku8/anonsTB5DZIjMrPJPtYCkGoGZgucmwi3LXEh1OoL4+c8B6qwqqCOTm2suQ/3HcQeLeKDwexVwtQp9GsCbodC4eF8Kh+n33hvqPTJxfz1y795IW4v9pmp53Cjao4fIBRcYrkmTRLKy+IhTRfIfRruDb6ldwvPKVpIdSnlKYYPC7dFKBk2bRqTrjuR5PkvmublwsZtW9mjoPR3Kl49Y+Y/j41EdXo0exyVje0nBdvwn/CAOGrXJMCfn/DbSpnsCdu5UW28tEryCdvjrkQd1o2mdOiLffZe6Kb32msiYMSI//WkCH3dy0yxYWOjfX2T16lOpV5bKslNpnVJYGCyDZZJSAig0//xzESdvroSIzh1GV52tw3mUOM4RI0S4a4oVGjOgFhdsLpk09xFwa7OFJUcOROjtcIdAcuq2btpUpfnV5GdH+wPNlD5VChprZa30UlqlZAnusWCjj9t9bcnnwdNfjzx2TKS+bgfbscM+69dfF5kwwbISGelJtddLBShu9w4S7dtHdr8lp1lRKkodpfeVgkZv6S2vK9miUyeRefNsg30HeH5fU2TDxW87dUCukJctmzZ5HknlSdPbJmWql6QaKNI4IU8ysJNX2iSb0nse5uFepZTgvLtmTYDfzIDhr0ceP87j2ES449UKa9aI9O5tFZLg16aNCN86M2YkeHtyUP8pOzulNWs5R+kRpZFKQeCYHJMspQlKKUEd0YULRe5RM2x6Il/g8Nw4qPhCXfsHHii5r54TOC5uOgQ30PBQHJru8go2eFqq+rdDbcOmaIqPlfyC+zimKjnGn1Qa8re/OWZ3wuivR+o5jKZH8jvJ3hcPbs2uWTPeJ+U1LVBzFEvb8F7x17+KNG4sct11zlKYI3Okm9IPSl6RIzmyR4n7NB1j7FiROXPEvdXANDk4qXFLni5dIgJG9spk6xs8S3HbNstoqTyp/dGtWyoO6zDumjZ246yDbX0nqQ3YLkpewK1xVyjR2JFrUL+HGhLcChYATBV7Tidm+orqGjTcFgMVYrg12yNodcrNqYCLF0e0K3iwihfQNAqPR3QDDpTqK61R8gwaMa9Xz4i8PKcRjeivInmmEM9nJOK3NPHk0xIKOhE2J/9ph4Cq/JQ98zoVJk6MVKLf0wPboZ1aaNbEHICVSDljjpJv0MIULV9yV5fHg9ZYBn8Vyd2ssfP2+vWLGN1hb7RRCXR707Q+xfEST4MrKDgVm4ManqR0002RcVa6yj4V0/6KAuj2SoOUEk40SIpCnVkuwfnd6p6QLG+ob9+IojaXPXlzFLwXKzglcFs6/FUkv4N6vrABjZvyUER+qLycw2dZvMi90D4Rp1/c6c1r7r7j0mVQJynFZz0QA3XTWwOsVjLG8KOB/B6+qFRX6TOlUMADstgzuWubykUutCh8VeQGrcQBAwZgAg93UuxScdYAVTriYdNEvrao/npWLf/0lG/jN1T1Igeq1YXYodHjdHTDNHjgNDFz5kwTzkOwiSVqI438S5boh1CxevUqZGUNxIwZM4x7k6ofMj4P1SZ4UDX5hwwZYtx6erjJ/3FdvPgherrOcD3djnF2RifmE/X9TPen0ZOtJ8+bjKoDq6Lau9VwiVL1FdWNu+OsjkYMtk7V8JjHyy+/bPLYoW8hpj9ixAjjPqTKSQzPzs42bv7j4d7M4/uoAdgXtMLoZvmJ2TpaY5yl0U7Ag8h3uTDs52+t1TSD0n8/hifgbx75Y7iD0jKYJ1BakWdIQyityNKKPEOewBlyG6U9srQiz5AncIbcRmmPLK3IM+QJlN5G6RP4MT2B/wE3ZQQPwk+qQAAAAABJRU5ErkJggg==;clipPath=inset(5.81% 10.53% 12.79% 12.28%);imageBorder=default;" vertex="1" parent="1">
          <mxGeometry x="870.0000000000002" y="217.5" width="125.71" height="99.99659090909091" as="geometry" />
        </mxCell>
        <mxCell id="MDaIKtW8UcgU8Lhw4XhT-110" value="merge" style="text;html=1;align=center;verticalAlign=middle;resizable=0;points=[];autosize=1;strokeColor=none;fillColor=none;fontFamily=Times New Roman;fontSize=17;fontStyle=1" vertex="1" parent="1">
          <mxGeometry x="623.4" y="338.76" width="70" height="30" as="geometry" />
        </mxCell>
        <mxCell id="MDaIKtW8UcgU8Lhw4XhT-111" value="merge" style="text;html=1;align=center;verticalAlign=middle;resizable=0;points=[];autosize=1;strokeColor=none;fillColor=none;fontFamily=Times New Roman;fontSize=17;fontStyle=1" vertex="1" parent="1">
          <mxGeometry x="620" y="225.01999999999998" width="70" height="30" as="geometry" />
        </mxCell>
        <mxCell id="MDaIKtW8UcgU8Lhw4XhT-112" value="merge" style="text;html=1;align=center;verticalAlign=middle;resizable=0;points=[];autosize=1;strokeColor=none;fillColor=none;fontFamily=Times New Roman;fontSize=17;fontStyle=1" vertex="1" parent="1">
          <mxGeometry x="800" y="305" width="70" height="30" as="geometry" />
        </mxCell>
      </root>
    </mxGraphModel>
  </diagram>
</mxfile>
